<svg width="572" height="460" viewBox="0 0 572 460" fill="none" xmlns="http://www.w3.org/2000/svg">
<g clip-path="url(#clip0)">
<path d="M289.397 460C445.474 460 572 450.133 572 437.962C572 425.791 445.474 415.924 289.397 415.924C133.319 415.924 6.79335 425.791 6.79335 437.962C6.79335 450.133 133.319 460 289.397 460Z" fill="#3F3D56"/>
<path d="M529.453 397.021L532.101 416.41L513.56 418.172L516.209 394.378L529.453 397.021Z" fill="#A0616A"/>
<path d="M442.044 130.872C442.044 130.872 443.81 154.667 443.81 155.548C443.81 156.429 431.449 217.238 431.449 217.238C431.449 217.238 413.791 250.727 431.449 249.846C449.108 248.965 443.81 218.12 443.81 218.12L462.351 167.005L454.405 130.872L442.044 130.872Z" fill="#A0616A"/>
<path d="M471.181 397.021L468.532 416.41L487.073 418.172L484.424 394.378L471.181 397.021Z" fill="#A0616A"/>
<path d="M450.873 215.476L446.459 221.645C446.459 221.645 443.81 248.083 446.459 256.896C449.107 265.709 454.405 306.249 454.405 308.892C454.405 311.536 455.288 313.299 454.405 314.18C453.522 315.062 450.873 315.062 452.639 316.824C454.405 318.587 454.405 323.874 454.405 323.874V328.281L465.883 393.496C465.883 393.496 458.82 401.428 464.117 401.428C469.414 401.428 488.838 401.428 487.956 392.615L486.19 391.734C486.19 391.734 483.541 333.569 484.424 330.925C485.307 328.281 484.424 322.993 484.424 322.993C484.424 322.993 482.658 320.349 484.424 319.468C486.19 318.587 486.19 311.536 486.19 311.536L494.136 257.778C494.136 257.778 501.199 293.911 505.614 297.436C510.028 300.961 509.145 309.774 509.145 309.774L512.677 387.327C512.677 387.327 509.145 396.14 512.677 397.903C516.209 399.665 531.218 405.834 532.101 397.022C532.984 388.209 537.399 311.536 537.399 308.011C537.399 304.486 536.516 302.723 537.399 300.08C538.281 297.436 536.516 297.436 537.399 297.436C538.281 297.436 535.633 294.792 535.633 293.029V249.846C535.633 249.846 536.516 241.033 537.399 239.271C538.281 237.508 536.516 235.745 537.399 233.101C538.281 230.458 535.633 221.645 535.633 221.645L495.902 211.069L450.873 215.476Z" fill="#2F2E41"/>
<path d="M481.775 412.885C481.775 412.885 486.19 408.479 480.009 408.479C476.042 408.559 472.134 409.459 468.532 411.122L464.117 426.986C464.117 426.986 446.017 441.527 466.324 439.764C486.631 438.002 483.541 439.324 483.541 439.324C483.541 439.324 489.721 437.561 490.604 435.799C491.487 434.036 488.839 408.479 488.839 408.479C488.839 408.479 486.19 415.529 481.775 412.885Z" fill="#2F2E41"/>
<path d="M519.74 412.885C519.74 412.885 515.326 408.478 521.506 408.478C525.474 408.559 529.382 409.459 532.984 411.122L537.398 426.986C537.398 426.986 555.498 441.527 535.191 439.764C514.884 438.002 515.326 439.324 515.326 439.324C515.326 439.324 509.145 437.561 508.262 435.798C507.38 434.036 512.677 408.478 512.677 408.478C512.677 408.478 515.326 415.529 519.74 412.885Z" fill="#2F2E41"/>
<path d="M462.351 61.2497C475.029 61.2497 485.307 50.991 485.307 38.3362C485.307 25.6814 475.029 15.4226 462.351 15.4226C449.673 15.4226 439.396 25.6814 439.396 38.3362C439.396 50.991 449.673 61.2497 462.351 61.2497Z" fill="#A0616A"/>
<path d="M454.405 55.0807C454.405 55.0807 457.937 72.7065 457.937 75.3504C457.937 77.9942 472.946 85.9258 472.946 85.9258L489.721 64.7749C489.721 64.7749 479.127 49.7929 479.127 46.2678L454.405 55.0807Z" fill="#A0616A"/>
<path d="M467.649 77.9942C467.649 77.9942 459.953 75.9498 457.621 72.5655C457.621 72.5655 433.215 96.5013 433.215 100.908L452.639 135.278C452.639 135.278 452.639 147.616 454.405 148.498C456.171 149.379 454.405 148.498 454.405 152.023C454.405 155.548 449.108 178.461 450.873 181.987C452.639 185.512 454.405 182.868 452.639 188.156C450.873 193.443 446.459 221.645 446.459 221.645C446.459 221.645 462.351 216.357 485.307 225.17C508.263 233.983 535.633 221.645 535.633 221.645C535.633 221.645 528.569 205.781 530.335 200.494C532.101 195.206 525.921 185.512 525.921 185.512L521.506 104.433C521.506 104.433 527.686 68.3 523.272 66.5374L514.443 63.0122L486.169 59.5436C486.169 59.5436 479.126 77.1129 467.649 77.9942Z" fill="#D0CDE1"/>
<path d="M442.044 94.7389L433.215 100.908C433.215 100.908 428.801 114.127 433.215 120.296C437.63 126.465 439.396 135.278 439.396 135.278L457.054 133.516L442.044 94.7389Z" fill="#D0CDE1"/>
<path d="M444.825 14.1204L440.843 12.5292C440.843 12.5292 449.168 3.37975 460.752 4.17537L457.494 0.595098C457.494 0.595098 465.458 -2.5873 472.698 5.76654C476.504 10.158 480.907 15.3199 483.652 21.1347H487.917L486.137 25.0464L492.366 28.9582L485.973 28.2555C486.578 31.6326 486.371 35.105 485.368 38.3864L485.539 41.4783C485.539 41.4783 478.128 30.0325 478.128 28.4413V32.4194C478.128 32.4194 474.146 28.8391 474.146 26.4523L471.974 29.237L470.888 24.8611L457.494 29.237L459.666 25.6567L451.34 26.8502L454.598 22.4743C454.598 22.4743 445.187 27.6458 444.825 32.0216C444.463 36.3974 439.757 41.9667 439.757 41.9667L437.585 37.9887C437.585 37.9887 434.327 20.0875 444.825 14.1204Z" fill="#2F2E41"/>
<path d="M450.149 191.785H99.2978V437.795H450.149V191.785Z" fill="#F2F2F2"/>
<path d="M216.927 285.649H128.832V439.151H216.927V285.649Z" fill="#3F3D56"/>
<path d="M168.858 294.858H145.127V316.939H168.858V294.858Z" fill="#F2F2F2"/>
<path d="M200.632 294.858H176.902V316.939H200.632V294.858Z" fill="#F2F2F2"/>
<path d="M168.858 324.969H145.127V347.852H168.858V324.969Z" fill="#F2F2F2"/>
<path d="M200.632 324.969H176.902V347.852H200.632V324.969Z" fill="#F2F2F2"/>
<path d="M205.724 378.326C208.818 378.326 211.326 375.823 211.326 372.735C211.326 369.647 208.818 367.144 205.724 367.144C202.631 367.144 200.123 369.647 200.123 372.735C200.123 375.823 202.631 378.326 205.724 378.326Z" fill="#6C63FF"/>
<path d="M420.614 271.078H246.462V416.956H420.614V271.078Z" fill="#3F3D56"/>
<path d="M486.813 238.1H62.634L90.9161 179.078L97.2454 165.863L105.526 148.581L111.855 135.366L119.193 120.056H453.393L457.726 135.366L461.469 148.581L466.363 165.863L470.105 179.078L486.813 238.1Z" fill="#3F3D56"/>
<path d="M258.683 331.564H252.572V369.177H258.683V331.564Z" fill="#6C63FF"/>
<path d="M258.683 337.155H252.572V341.729H258.683V337.155Z" fill="#F2F2F2"/>
<path d="M258.683 359.011H252.572V363.586H258.683V359.011Z" fill="#F2F2F2"/>
<path d="M276.506 331.564H261.738V369.177H276.506V331.564Z" fill="#6C63FF"/>
<path d="M276.506 337.155H261.738V341.729H276.506V337.155Z" fill="#F2F2F2"/>
<path d="M276.506 359.011H261.738V363.586H276.506V359.011Z" fill="#F2F2F2"/>
<path d="M286.181 331.564H280.07V369.177H286.181V331.564Z" fill="#6C63FF"/>
<path d="M286.181 337.155H280.07V341.729H286.181V337.155Z" fill="#F2F2F2"/>
<path d="M286.181 359.011H280.07V363.586H286.181V359.011Z" fill="#F2F2F2"/>
<path d="M295.347 331.564H289.236V369.177H295.347V331.564Z" fill="#6C63FF"/>
<path d="M295.347 337.155H289.236V341.729H295.347V337.155Z" fill="#F2F2F2"/>
<path d="M295.347 359.011H289.236V363.586H295.347V359.011Z" fill="#F2F2F2"/>
<path d="M301.235 331.697L295.517 333.848L308.809 369.044L314.527 366.892L301.235 331.697Z" fill="#6C63FF"/>
<path d="M303.211 336.929L297.493 339.08L299.11 343.36L304.827 341.209L303.211 336.929Z" fill="#F2F2F2"/>
<path d="M310.934 357.38L305.216 359.531L306.833 363.812L312.551 361.661L310.934 357.38Z" fill="#F2F2F2"/>
<path d="M415.013 331.564H400.246V369.177H415.013V331.564Z" fill="#6C63FF"/>
<path d="M415.013 337.155H400.246V341.729H415.013V337.155Z" fill="#F2F2F2"/>
<path d="M415.013 359.011H400.246V363.586H415.013V359.011Z" fill="#F2F2F2"/>
<path d="M396.681 331.564H390.571V369.177H396.681V331.564Z" fill="#6C63FF"/>
<path d="M396.681 337.155H390.571V341.729H396.681V337.155Z" fill="#F2F2F2"/>
<path d="M396.681 359.011H390.571V363.586H396.681V359.011Z" fill="#F2F2F2"/>
<path d="M387.515 331.564H381.405V369.177H387.515V331.564Z" fill="#6C63FF"/>
<path d="M387.515 337.155H381.405V341.729H387.515V337.155Z" fill="#F2F2F2"/>
<path d="M387.515 359.011H381.405V363.586H387.515V359.011Z" fill="#F2F2F2"/>
<path d="M375.516 331.697L362.225 366.892L367.943 369.044L381.234 333.848L375.516 331.697Z" fill="#6C63FF"/>
<path d="M373.54 336.928L371.924 341.209L377.642 343.36L379.258 339.08L373.54 336.928Z" fill="#F2F2F2"/>
<path d="M365.817 357.38L364.201 361.661L369.918 363.812L371.535 359.531L365.817 357.38Z" fill="#F2F2F2"/>
<path d="M420.614 369.177H246.462V372.735H420.614V369.177Z" fill="#F2F2F2"/>
<path d="M354.416 331.564H322.335V369.177H354.416V331.564Z" fill="#6C63FF"/>
<path d="M346.523 339.696H330.228V346.812H346.523V339.696Z" fill="#F2F2F2"/>
<path d="M335.066 271.078H332.01V303.608H335.066V271.078Z" fill="#F2F2F2"/>
<path d="M333.538 308.691C336.35 308.691 338.63 306.415 338.63 303.608C338.63 300.801 336.35 298.525 333.538 298.525C330.726 298.525 328.446 300.801 328.446 303.608C328.446 306.415 330.726 308.691 333.538 308.691Z" fill="#F2F2F2"/>
<path d="M461.469 148.581H105.526L111.855 135.366H457.726L461.469 148.581Z" fill="#6C63FF"/>
<path d="M470.105 179.078H90.9161L97.2454 165.863H466.363L470.105 179.078Z" fill="#6C63FF"/>
<path d="M507.38 102.67C507.38 102.67 502.267 115.793 503.335 128.778C503.53 131.102 504.314 133.339 505.614 135.278L442.976 164.961C442.976 164.961 414.674 167.886 421.737 180.224C428.801 192.562 454.405 174.055 454.405 174.055C454.405 174.055 521.506 164.361 526.804 154.667C532.101 144.972 535.633 104.433 535.633 104.433L507.38 102.67Z" fill="#A0616A"/>
<path d="M510.028 66.5375H523.272C523.272 66.5375 532.984 68.3001 535.633 85.9259C538.281 103.552 540.93 107.958 538.281 107.958C535.633 107.958 503.848 107.077 503.848 106.196C503.848 105.314 510.028 66.5375 510.028 66.5375Z" fill="#D0CDE1"/>
<path d="M67.9335 329.807C105.452 329.807 135.867 299.448 135.867 261.998C135.867 224.548 105.452 194.189 67.9335 194.189C30.4149 194.189 0 224.548 0 261.998C0 299.448 30.4149 329.807 67.9335 329.807Z" fill="#6C63FF"/>
<path opacity="0.1" d="M67.9335 320.314C100.2 320.314 126.356 294.205 126.356 261.998C126.356 229.791 100.2 203.682 67.9335 203.682C35.6675 203.682 9.51068 229.791 9.51068 261.998C9.51068 294.205 35.6675 320.314 67.9335 320.314Z" fill="black"/>
<path d="M65.134 296.409V287.922C60.8356 287.838 56.3889 286.325 53.7952 284.224L55.5737 278.594C58.656 280.899 62.394 282.165 66.2456 282.207C71.5076 282.207 75.0649 278.762 75.0649 273.972C75.0649 269.349 72.1745 266.492 66.6903 263.971C59.131 260.61 54.4621 256.744 54.4621 249.433C54.4621 242.458 58.8346 237.163 65.6529 235.903V227.415H70.2477V235.567C73.6739 235.614 77.0159 236.634 79.8822 238.508L78.0292 244.055C75.2802 242.176 72.0227 241.179 68.6913 241.197C62.985 241.197 60.8356 245.063 60.8356 248.424C60.8356 252.794 63.5777 254.979 70.0255 258.005C77.6586 261.534 81.5127 265.904 81.5127 273.383C81.5127 280.022 77.4365 286.241 69.8029 287.669V296.409H65.134Z" fill="#F2F2F2"/>
</g>
<defs>
<clipPath id="clip0">
<rect width="572" height="460" fill="white"/>
</clipPath>
</defs>
</svg>
