<svg width="562" height="412" viewBox="0 0 562 412" fill="none" xmlns="http://www.w3.org/2000/svg">
<g clip-path="url(#clip0)">
<path opacity="0.1" d="M321.73 412C356.312 412 384.347 406.014 384.347 398.63C384.347 391.246 356.312 385.26 321.73 385.26C287.147 385.26 259.113 391.246 259.113 398.63C259.113 406.014 287.147 412 321.73 412Z" fill="#6C63FF"/>
<path opacity="0.1" d="M546.955 349.234C534.514 359.55 516.811 363.82 499.69 366.516L496.809 366.955C466.885 371.419 436.358 372.328 405.974 373.227C321.23 375.734 236.266 378.237 151.746 372.456C114.368 369.902 76.065 365.428 43.3055 350.138L42.4523 349.735C42.0282 349.535 41.6042 349.336 41.1801 349.127C35.3636 346.352 29.792 343.09 24.5245 339.378C15.1697 332.708 7.44479 324.567 3.36263 314.91C-3.03395 299.763 0.348265 282.736 7.65427 267.926C14.9603 253.116 25.9448 239.776 35.4171 225.829C38.1964 221.744 40.8327 217.505 43.2851 213.159C58.6123 185.903 66.2147 154.362 50.1466 128.097C48.0257 124.748 45.7355 121.51 43.2851 118.394C39.3664 113.287 35.3813 108.18 32.6888 102.527C26.4097 89.3709 27.7585 74.576 30.0474 60.5217C33.1129 41.8352 38.7584 21.7087 56.2979 10.0341C74.522 -2.08983 100.389 -1.47699 123.007 2.88436C158.173 9.62046 190.631 23.7208 223.396 36.4372C256.16 49.1535 290.504 60.7362 326.528 61.9823C358.337 63.0905 395.445 54.8325 416.566 33.3424C437.079 12.4804 475.627 10.9023 503.42 23.5012C529.941 35.523 547.093 60.966 545.825 86.3783C544.211 118.093 517.761 143.49 496.829 170.49C493.35 174.979 490.019 179.519 486.979 184.136C477.057 199.217 470.042 217.331 476.873 233.612C480.705 242.728 488.016 249.684 496.829 255.756C516.576 269.356 543.833 278.508 556.095 297.546C566.655 313.971 562.742 336.135 546.955 349.234Z" fill="#6C63FF"/>
<path d="M496.859 365.562C512.945 365.562 525.986 363.056 525.986 359.965C525.986 356.874 512.945 354.368 496.859 354.368C480.773 354.368 467.732 356.874 467.732 359.965C467.732 363.056 480.773 365.562 496.859 365.562Z" fill="#6C63FF"/>
<path d="M496.374 362.023C498.247 362.023 499.766 360.036 499.766 357.585C499.766 355.134 498.247 353.147 496.374 353.147C494.5 353.147 492.981 355.134 492.981 357.585C492.981 360.036 494.5 362.023 496.374 362.023Z" fill="#3F3D56"/>
<path d="M496.374 356.6C498.247 356.6 499.766 354.613 499.766 352.162C499.766 349.711 498.247 347.724 496.374 347.724C494.5 347.724 492.981 349.711 492.981 352.162C492.981 354.613 494.5 356.6 496.374 356.6Z" fill="#3F3D56"/>
<path d="M496.374 351.171C498.247 351.171 499.766 349.184 499.766 346.733C499.766 344.282 498.247 342.295 496.374 342.295C494.5 342.295 492.981 344.282 492.981 346.733C492.981 349.184 494.5 351.171 496.374 351.171Z" fill="#3F3D56"/>
<path d="M496.374 345.747C498.247 345.747 499.766 343.76 499.766 341.309C499.766 338.858 498.247 336.871 496.374 336.871C494.5 336.871 492.981 338.858 492.981 341.309C492.981 343.76 494.5 345.747 496.374 345.747Z" fill="#3F3D56"/>
<path d="M496.374 340.324C498.247 340.324 499.766 338.337 499.766 335.886C499.766 333.435 498.247 331.448 496.374 331.448C494.5 331.448 492.981 333.435 492.981 335.886C492.981 338.337 494.5 340.324 496.374 340.324Z" fill="#3F3D56"/>
<path d="M496.374 334.9C498.247 334.9 499.766 332.913 499.766 330.462C499.766 328.011 498.247 326.024 496.374 326.024C494.5 326.024 492.981 328.011 492.981 330.462C492.981 332.913 494.5 334.9 496.374 334.9Z" fill="#3F3D56"/>
<path d="M496.374 329.476C498.247 329.476 499.766 327.489 499.766 325.038C499.766 322.587 498.247 320.601 496.374 320.601C494.5 320.601 492.981 322.587 492.981 325.038C492.981 327.489 494.5 329.476 496.374 329.476Z" fill="#3F3D56"/>
<path d="M509.07 287.921C509.534 287.332 509.956 286.711 510.332 286.062L501.422 284.601L511.057 284.673C511.985 282.662 512.491 280.484 512.544 278.27C512.598 276.057 512.198 273.856 511.369 271.803L498.438 278.519L510.362 269.761C509.248 267.825 507.747 266.14 505.952 264.811C504.157 263.482 502.107 262.537 499.93 262.035C497.753 261.534 495.496 261.486 493.3 261.896C491.104 262.306 489.016 263.164 487.167 264.416C485.318 265.669 483.747 267.289 482.552 269.176C481.357 271.063 480.565 273.176 480.224 275.382C479.883 277.589 480.001 279.843 480.571 282.002C481.14 284.161 482.149 286.179 483.535 287.931C482.811 288.848 482.189 289.842 481.68 290.893L493.247 296.904L480.914 292.768C480.047 295.327 479.832 298.062 480.29 300.724C480.747 303.387 481.863 305.894 483.535 308.017C481.65 310.413 480.479 313.29 480.153 316.32C479.828 319.35 480.362 322.41 481.694 325.151C483.026 327.892 485.103 330.203 487.687 331.82C490.272 333.436 493.259 334.294 496.307 334.294C499.356 334.294 502.343 333.436 504.927 331.82C507.511 330.203 509.588 327.892 510.921 325.151C512.253 322.41 512.787 319.35 512.461 316.32C512.136 313.29 510.964 310.413 509.08 308.017C511.334 305.155 512.56 301.619 512.56 297.977C512.56 294.334 511.334 290.798 509.08 287.936L509.07 287.921Z" fill="#6C63FF"/>
<path opacity="0.1" d="M480.055 297.961C480.051 301.604 481.277 305.142 483.535 308.002C481.651 310.397 480.479 313.275 480.153 316.305C479.828 319.334 480.362 322.395 481.694 325.136C483.026 327.877 485.103 330.188 487.687 331.804C490.272 333.421 493.259 334.279 496.307 334.279C499.356 334.279 502.343 333.421 504.927 331.804C507.511 330.188 509.588 327.877 510.921 325.136C512.253 322.395 512.787 319.334 512.461 316.305C512.136 313.275 510.964 310.397 509.08 308.002C511.246 305.239 480.055 296.138 480.055 297.961Z" fill="black"/>
<path d="M68.8348 344.164C68.8348 347.019 57.6918 349.378 43.2893 349.715H42.4361C42.012 349.516 41.588 349.317 41.1639 349.108C35.3534 346.338 29.7869 343.084 24.5236 339.379C28.0233 338.97 32.0033 338.695 36.2745 338.603H36.8519C37.7817 338.603 38.7269 338.572 39.6823 338.572C40.3056 338.572 40.9238 338.572 41.5318 338.572H42.1347C42.523 338.572 42.9061 338.572 43.2842 338.572C57.6918 338.945 68.8348 341.335 68.8348 344.164Z" fill="#6C63FF"/>
<path d="M39.2174 346.222C41.091 346.222 42.6098 344.235 42.6098 341.784C42.6098 339.333 41.091 337.346 39.2174 337.346C37.3438 337.346 35.825 339.333 35.825 341.784C35.825 344.235 37.3438 346.222 39.2174 346.222Z" fill="#3F3D56"/>
<path d="M39.2174 340.799C41.091 340.799 42.6098 338.812 42.6098 336.361C42.6098 333.91 41.091 331.923 39.2174 331.923C37.3438 331.923 35.825 333.91 35.825 336.361C35.825 338.812 37.3438 340.799 39.2174 340.799Z" fill="#3F3D56"/>
<path d="M39.2174 335.375C41.091 335.375 42.6098 333.388 42.6098 330.937C42.6098 328.486 41.091 326.499 39.2174 326.499C37.3438 326.499 35.825 328.486 35.825 330.937C35.825 333.388 37.3438 335.375 39.2174 335.375Z" fill="#3F3D56"/>
<path d="M39.2174 329.951C41.091 329.951 42.6098 327.964 42.6098 325.513C42.6098 323.062 41.091 321.075 39.2174 321.075C37.3438 321.075 35.825 323.062 35.825 325.513C35.825 327.964 37.3438 329.951 39.2174 329.951Z" fill="#3F3D56"/>
<path d="M39.2174 324.528C41.091 324.528 42.6098 322.541 42.6098 320.09C42.6098 317.639 41.091 315.652 39.2174 315.652C37.3438 315.652 35.825 317.639 35.825 320.09C35.825 322.541 37.3438 324.528 39.2174 324.528Z" fill="#3F3D56"/>
<path d="M39.2174 319.104C41.091 319.104 42.6098 317.117 42.6098 314.666C42.6098 312.215 41.091 310.228 39.2174 310.228C37.3438 310.228 35.825 312.215 35.825 314.666C35.825 317.117 37.3438 319.104 39.2174 319.104Z" fill="#3F3D56"/>
<path d="M39.2174 313.675C41.091 313.675 42.6098 311.689 42.6098 309.237C42.6098 306.786 41.091 304.8 39.2174 304.8C37.3438 304.8 35.825 306.786 35.825 309.237C35.825 311.689 37.3438 313.675 39.2174 313.675Z" fill="#3F3D56"/>
<path d="M51.9135 272.12C52.3775 271.532 52.8008 270.912 53.1805 270.266L44.2651 268.816L53.906 268.887C54.8312 266.877 55.3356 264.699 55.3883 262.487C55.4411 260.274 55.0409 258.075 54.2125 256.023L41.2865 262.728L53.2112 253.965C52.0949 252.033 50.5926 250.353 48.7979 249.027C47.0032 247.702 44.9545 246.76 42.7797 246.261C40.6049 245.761 38.3505 245.715 36.1571 246.125C33.9637 246.535 31.8783 247.392 30.0309 248.643C28.1834 249.894 26.6136 251.512 25.4193 253.397C24.225 255.281 23.4318 257.391 23.0891 259.595C22.7464 261.799 22.8616 264.05 23.4275 266.207C23.9933 268.365 24.9978 270.383 26.3782 272.135C25.6573 273.055 25.0357 274.047 24.5236 275.097L36.0906 281.072L23.7573 276.951C22.8939 279.511 22.6814 282.245 23.1389 284.907C23.5965 287.569 24.7097 290.076 26.3782 292.201C24.4941 294.596 23.3224 297.474 22.9969 300.503C22.6714 303.533 23.2054 306.594 24.5377 309.335C25.87 312.076 27.9469 314.387 30.5311 316.003C33.1152 317.62 36.1023 318.477 39.1509 318.477C42.1995 318.477 45.1866 317.62 47.7708 316.003C50.355 314.387 52.4319 312.076 53.7642 309.335C55.0965 306.594 55.6305 303.533 55.305 300.503C54.9795 297.474 53.8078 294.596 51.9237 292.201C54.1778 289.339 55.4035 285.803 55.4035 282.16C55.4035 278.518 54.1778 274.982 51.9237 272.12H51.9135Z" fill="#6C63FF"/>
<path opacity="0.1" d="M22.904 282.16C22.8981 285.803 24.1222 289.34 26.3782 292.201C24.4941 294.596 23.3224 297.474 22.9969 300.504C22.6714 303.533 23.2054 306.594 24.5377 309.335C25.87 312.076 27.9469 314.387 30.5311 316.003C33.1152 317.62 36.1023 318.478 39.1509 318.478C42.1996 318.478 45.1867 317.62 47.7708 316.003C50.355 314.387 52.4319 312.076 53.7642 309.335C55.0965 306.594 55.6305 303.533 55.305 300.504C54.9795 297.474 53.8078 294.596 51.9237 292.201C54.0899 289.438 22.904 280.337 22.904 282.16Z" fill="black"/>
<g opacity="0.2">
<path opacity="0.2" d="M156.256 283.585C156.256 284.065 156.205 284.535 156.154 284.995C152.19 283.401 148.286 281.711 144.444 279.923C142.4 279.654 140.499 278.727 139.029 277.283C137.91 276.721 136.796 276.139 135.687 275.552C135.937 275.024 136.22 274.512 136.535 274.02C138.681 270.618 141.951 268.489 145.553 268.606C149.155 268.724 152.271 271.047 154.203 274.561C155.682 277.331 156.392 280.448 156.256 283.585Z" fill="#3F3D56"/>
<path opacity="0.2" d="M156.849 265.752C156.775 268.88 155.871 271.933 154.228 274.597C152.077 277.988 148.813 280.117 145.211 280C144.96 280 144.7 279.969 144.47 279.949C142.426 279.68 140.525 278.753 139.054 277.309C138.055 276.364 137.213 275.266 136.561 274.056C135.116 271.277 134.409 268.175 134.508 265.045C134.606 261.915 135.507 258.863 137.123 256.181C139.274 252.78 142.539 250.65 146.14 250.768C149.742 250.885 152.859 253.209 154.79 256.722C156.27 259.495 156.981 262.612 156.849 265.752Z" fill="#3F3D56"/>
<path opacity="0.2" d="M157.392 247.882C157.647 239.811 152.854 233.11 146.686 232.915C140.518 232.72 135.311 239.105 135.056 247.176C134.801 255.247 139.594 261.948 145.762 262.143C151.93 262.338 157.137 255.953 157.392 247.882Z" fill="#3F3D56"/>
<path opacity="0.2" d="M157.955 230.021C158.21 221.95 153.417 215.249 147.249 215.054C141.081 214.859 135.874 221.244 135.619 229.315C135.364 237.386 140.157 244.087 146.325 244.282C152.493 244.477 157.7 238.092 157.955 230.021Z" fill="#3F3D56"/>
<path opacity="0.2" d="M158.518 212.16C158.773 204.088 153.98 197.388 147.812 197.193C141.644 196.998 136.437 203.383 136.182 211.454C135.927 219.525 140.72 226.226 146.888 226.421C153.056 226.616 158.263 220.231 158.518 212.16Z" fill="#3F3D56"/>
<path opacity="0.2" d="M109.396 88.2638C107.933 86.2732 106.608 84.1846 105.431 82.0128L134.921 78.1213L103.204 77.3553C100.37 70.6398 98.9359 63.417 98.9904 56.1287C99.0448 48.8404 100.586 41.6398 103.52 34.9674L145.415 58.3829L107.02 28.2773C110.905 22.0508 116.03 16.6898 122.076 12.5278C128.123 8.36575 134.961 5.49166 142.166 4.08426C149.371 2.67685 156.788 2.76623 163.957 4.34683C171.126 5.92743 177.893 8.96545 183.837 13.272C189.782 17.5785 194.776 23.0614 198.509 29.3796C202.243 35.6979 204.636 42.7165 205.54 49.9989C206.444 57.2812 205.84 64.6717 203.764 71.7105C201.689 78.7494 198.187 85.2862 193.476 90.9143C195.753 94.0108 197.69 97.3426 199.255 100.852L160.543 119.432L201.584 107.088C204.167 115.605 204.585 124.631 202.8 133.349C201.016 142.068 197.086 150.205 191.366 157.024C197.325 165.106 200.889 174.702 201.649 184.713C202.41 194.724 200.336 204.747 195.666 213.636C190.996 222.525 183.918 229.921 175.24 234.978C166.563 240.034 156.638 242.548 146.598 242.232C136.559 241.915 126.811 238.781 118.47 233.188C110.129 227.594 103.531 219.768 99.4304 210.602C95.3299 201.437 93.8925 191.303 95.2825 181.36C96.6726 171.416 100.834 162.064 107.291 154.374C100.171 144.717 96.5061 132.948 96.8841 120.958C97.2622 108.968 101.662 97.4533 109.375 88.2638H109.396Z" fill="#6C63FF"/>
<path opacity="0.1" d="M203.878 124.329C203.517 136.319 199.117 147.835 191.392 157.014C197.348 165.096 200.909 174.69 201.668 184.7C202.426 194.71 200.352 204.731 195.682 213.618C191.012 222.505 183.935 229.899 175.26 234.956C166.584 240.012 156.66 242.526 146.623 242.211C136.585 241.896 126.839 238.764 118.498 233.174C110.157 227.583 103.558 219.759 99.455 210.597C95.3523 201.434 93.9114 191.303 95.297 181.361C96.6827 171.418 100.839 162.066 107.291 154.374C100.429 145.053 204.067 118.328 203.878 124.329Z" fill="black"/>
</g>
<g opacity="0.2">
<path opacity="0.2" d="M407.797 245.395C407.797 245.737 407.762 246.069 407.726 246.417C404.895 245.296 402.118 244.095 399.393 242.811C397.938 242.617 396.585 241.958 395.536 240.932C394.744 240.528 393.947 240.115 393.16 239.701C393.338 239.326 393.54 238.963 393.763 238.613C395.295 236.192 397.615 234.681 400.18 234.762C402.745 234.844 404.962 236.499 406.336 239.001C407.383 240.965 407.888 243.172 407.797 245.395Z" fill="#3F3D56"/>
<path opacity="0.2" d="M408.216 232.684C408.165 234.911 407.522 237.085 406.352 238.981C404.819 241.391 402.499 242.908 399.934 242.826L399.424 242.791C397.969 242.597 396.615 241.937 395.566 240.911C394.858 240.236 394.259 239.454 393.793 238.593C392.769 236.617 392.267 234.412 392.337 232.188C392.407 229.963 393.045 227.794 394.192 225.887C395.725 223.466 398.049 221.949 400.609 222.031C403.169 222.113 405.396 223.767 406.765 226.27C407.811 228.241 408.312 230.455 408.216 232.684Z" fill="#3F3D56"/>
<path opacity="0.2" d="M408.626 219.988C408.808 214.245 405.397 209.478 401.009 209.339C396.621 209.201 392.916 213.743 392.735 219.486C392.553 225.228 395.963 229.996 400.352 230.135C404.74 230.273 408.445 225.73 408.626 219.988Z" fill="#3F3D56"/>
<path opacity="0.2" d="M409.023 207.279C409.205 201.536 405.795 196.769 401.406 196.63C397.018 196.491 393.313 201.034 393.132 206.777C392.95 212.519 396.361 217.287 400.749 217.425C405.137 217.564 408.842 213.021 409.023 207.279Z" fill="#3F3D56"/>
<path opacity="0.2" d="M409.426 194.57C409.607 188.827 406.197 184.06 401.808 183.921C397.42 183.783 393.715 188.325 393.534 194.068C393.352 199.81 396.763 204.578 401.151 204.717C405.539 204.855 409.244 200.312 409.426 194.57Z" fill="#3F3D56"/>
<path opacity="0.2" d="M374.45 106.414C373.407 104.999 372.465 103.513 371.63 101.966L392.618 99.1979L370.031 98.6514C368.013 93.8725 366.992 88.7323 367.03 83.5453C367.067 78.3583 368.163 73.2336 370.251 68.4845L400.042 85.1282L372.759 63.7146C375.513 59.2606 379.156 55.4221 383.46 52.4391C387.765 49.4561 392.639 47.3927 397.778 46.3778C402.916 45.3629 408.209 45.4184 413.325 46.5407C418.441 47.663 423.271 49.8281 427.512 52.9007C431.753 55.9732 435.315 59.8871 437.974 64.3978C440.634 68.9086 442.334 73.9191 442.968 79.1163C443.603 84.3135 443.158 89.5857 441.662 94.6033C440.166 99.6209 437.65 104.276 434.273 108.278C435.895 110.483 437.276 112.856 438.391 115.356L410.858 128.578L440.066 119.794C441.908 125.854 442.207 132.277 440.939 138.482C439.67 144.686 436.873 150.477 432.801 155.329C437.04 161.08 439.575 167.908 440.115 175.031C440.655 182.155 439.18 189.286 435.856 195.611C432.533 201.935 427.496 207.197 421.322 210.795C415.148 214.393 408.085 216.182 400.942 215.957C393.799 215.732 386.863 213.502 380.927 209.523C374.992 205.544 370.297 199.975 367.378 193.454C364.46 186.933 363.436 179.723 364.423 172.647C365.411 165.572 368.371 158.917 372.964 153.444C367.903 146.572 365.299 138.201 365.569 129.672C365.838 121.144 368.966 112.953 374.45 106.414Z" fill="#6C63FF"/>
<path opacity="0.1" d="M441.691 132.061C441.435 140.597 438.303 148.796 432.801 155.329C437.04 161.08 439.575 167.908 440.115 175.031C440.655 182.155 439.179 189.286 435.856 195.611C432.533 201.935 427.496 207.197 421.322 210.795C415.148 214.393 408.085 216.182 400.942 215.957C393.798 215.732 386.863 213.502 380.927 209.523C374.992 205.544 370.297 199.975 367.378 193.454C364.46 186.933 363.436 179.723 364.423 172.647C365.411 165.572 368.371 158.917 372.964 153.444C368.069 146.805 441.824 127.792 441.691 132.061Z" fill="black"/>
</g>
<g opacity="0.2">
<path opacity="0.2" d="M298.882 205.535C298.882 205.877 298.841 206.209 298.805 206.557C295.975 205.437 293.197 204.235 290.472 202.951C289.019 202.757 287.667 202.098 286.62 201.072C285.823 200.668 285.031 200.255 284.244 199.841C284.42 199.466 284.62 199.103 284.842 198.753C286.375 196.338 288.699 194.821 291.259 194.903C293.819 194.984 296.041 196.639 297.415 199.141C298.464 201.104 298.971 203.312 298.882 205.535Z" fill="#3F3D56"/>
<path opacity="0.2" d="M299.26 192.824C299.209 195.051 298.565 197.225 297.395 199.121C295.862 201.531 293.543 203.048 290.978 202.966C290.799 202.966 290.631 202.966 290.467 202.931C289.014 202.737 287.662 202.077 286.615 201.051C285.903 200.378 285.303 199.595 284.837 198.733C283.812 196.757 283.31 194.552 283.381 192.327C283.452 190.103 284.092 187.933 285.241 186.027C286.773 183.606 289.093 182.089 291.658 182.171C294.222 182.253 296.44 183.907 297.788 186.41C298.842 188.379 299.35 190.593 299.26 192.824Z" fill="#3F3D56"/>
<path opacity="0.2" d="M299.28 179.633C299.452 173.888 296.033 169.124 291.642 168.992C287.252 168.86 283.553 173.411 283.38 179.157C283.208 184.902 286.627 189.666 291.018 189.798C295.408 189.93 299.108 185.379 299.28 179.633Z" fill="#3F3D56"/>
<path opacity="0.2" d="M300.074 167.418C300.256 161.676 296.845 156.908 292.457 156.769C288.069 156.631 284.364 161.174 284.183 166.916C284.001 172.659 287.411 177.426 291.8 177.565C296.188 177.703 299.893 173.16 300.074 167.418Z" fill="#3F3D56"/>
<path opacity="0.2" d="M300.482 154.704C300.663 148.961 297.253 144.194 292.864 144.055C288.476 143.917 284.771 148.459 284.59 154.202C284.408 159.944 287.819 164.712 292.207 164.851C296.595 164.989 300.3 160.446 300.482 154.704Z" fill="#3F3D56"/>
<path opacity="0.2" d="M265.508 66.5337C264.466 65.1175 263.524 63.6312 262.687 62.0855L283.675 59.3175L261.073 58.7711C259.054 53.9922 258.033 48.8517 258.072 43.6644C258.11 38.4772 259.208 33.3525 261.298 28.6042L291.099 45.2682L263.822 23.8547C266.584 19.4195 270.229 15.6001 274.532 12.6342C278.834 9.6683 283.701 7.61936 288.83 6.61493C293.959 5.6105 299.24 5.67208 304.344 6.79585C309.448 7.91961 314.266 10.0815 318.498 13.1469C322.731 16.2124 326.286 20.1158 328.944 24.6141C331.602 29.1125 333.305 34.1095 333.947 39.2942C334.589 44.4788 334.157 49.7401 332.677 54.7506C331.197 59.7611 328.702 64.4134 325.345 68.4181C326.97 70.6229 328.352 72.996 329.468 75.4964L301.946 88.7184L331.149 79.9343C332.99 85.994 333.29 92.4171 332.022 98.6218C330.753 104.827 327.956 110.617 323.884 115.469C328.118 121.222 330.647 128.05 331.182 135.173C331.718 142.295 330.238 149.424 326.911 155.746C323.585 162.067 318.547 167.325 312.372 170.92C306.198 174.514 299.136 176.3 291.994 176.073C284.853 175.846 277.919 173.615 271.986 169.635C266.052 165.655 261.359 160.087 258.442 153.567C255.524 147.047 254.501 139.838 255.489 132.764C256.476 125.69 259.435 119.036 264.026 113.564C258.961 106.69 256.354 98.3148 256.623 89.7823C256.892 81.2498 260.021 73.055 265.508 66.5132V66.5337Z" fill="#6C63FF"/>
<path opacity="0.1" d="M332.75 92.2013C332.494 100.737 329.362 108.936 323.86 115.469C328.098 121.221 330.631 128.05 331.169 135.174C331.708 142.298 330.229 149.429 326.904 155.753C323.579 162.077 318.54 167.338 312.364 170.934C306.189 174.53 299.125 176.317 291.982 176.089C284.838 175.862 277.903 173.629 271.969 169.648C266.035 165.666 261.341 160.095 258.425 153.573C255.509 147.051 254.488 139.839 255.479 132.764C256.469 125.689 259.432 119.035 264.028 113.564C259.128 106.95 332.883 87.9319 332.75 92.2013Z" fill="black"/>
</g>
<path d="M496.808 255.762V366.957C466.884 371.42 436.357 372.329 405.973 373.228C321.229 375.735 236.265 378.238 151.745 372.457C114.367 369.903 76.0642 365.43 43.3047 350.139V213.15C43.4273 118.671 42.9164 213.15 43.3047 118.385V84.3774C43.3047 82.4676 44.0636 80.6361 45.4146 79.2856C46.7656 77.9352 48.5979 77.1766 50.5085 77.1766H489.604C491.515 77.1766 493.347 77.9352 494.698 79.2856C496.049 80.6361 496.808 82.4676 496.808 84.3774V170.496C497.115 255.538 496.604 170.762 496.808 255.762Z" fill="#3F3D56"/>
<path opacity="0.3" d="M361.616 111.204H178.496C177.023 111.204 175.829 112.398 175.829 113.87V123.124C175.829 124.596 177.023 125.79 178.496 125.79H361.616C363.089 125.79 364.283 124.596 364.283 123.124V113.87C364.283 112.398 363.089 111.204 361.616 111.204Z" fill="#6C63FF"/>
<path d="M351.475 119.105H351.163L351.046 119.008C351.436 118.542 351.651 117.955 351.654 117.348C351.648 116.85 351.494 116.365 351.213 115.954C350.931 115.543 350.534 115.224 350.072 115.038C349.61 114.852 349.103 114.807 348.615 114.909C348.127 115.011 347.68 115.254 347.331 115.609C346.981 115.964 346.745 116.415 346.651 116.904C346.557 117.393 346.61 117.899 346.804 118.358C346.997 118.817 347.322 119.209 347.738 119.483C348.154 119.758 348.642 119.904 349.14 119.902C349.745 119.899 350.33 119.686 350.795 119.299L350.908 119.396V119.692L352.854 121.643L353.437 121.061L351.475 119.105ZM349.14 119.105C348.792 119.106 348.452 119.004 348.162 118.811C347.872 118.619 347.646 118.345 347.513 118.024C347.379 117.703 347.343 117.35 347.41 117.008C347.478 116.667 347.645 116.354 347.89 116.108C348.136 115.861 348.449 115.694 348.79 115.625C349.131 115.557 349.485 115.592 349.806 115.724C350.128 115.857 350.402 116.082 350.596 116.371C350.789 116.661 350.892 117 350.892 117.348C350.894 117.579 350.849 117.807 350.762 118.021C350.674 118.234 350.545 118.428 350.382 118.591C350.219 118.755 350.026 118.884 349.812 118.972C349.599 119.061 349.371 119.106 349.14 119.105Z" fill="#444053"/>
<path opacity="0.7" d="M128.882 251.876H116.406C114.995 251.876 113.851 253.019 113.851 254.429V255.4C113.851 256.81 114.995 257.953 116.406 257.953H128.882C130.293 257.953 131.437 256.81 131.437 255.4V254.429C131.437 253.019 130.293 251.876 128.882 251.876Z" fill="#3F3D56"/>
<path opacity="0.3" d="M138.651 267.069H116.406C114.995 267.069 113.851 268.212 113.851 269.623V270.593C113.851 272.003 114.995 273.146 116.406 273.146H138.651C140.061 273.146 141.205 272.003 141.205 270.593V269.623C141.205 268.212 140.061 267.069 138.651 267.069Z" fill="#6C63FF"/>
<path opacity="0.3" d="M166.01 259.475H116.406C114.995 259.475 113.851 260.618 113.851 262.029V262.999C113.851 264.409 114.995 265.552 116.406 265.552H166.01C167.421 265.552 168.564 264.409 168.564 262.999V262.029C168.564 260.618 167.421 259.475 166.01 259.475Z" fill="#6C63FF"/>
<path d="M84.0803 266.88C83.6948 266.876 83.3122 266.948 82.9545 267.092C82.5969 267.236 82.2711 267.449 81.9958 267.719C81.7206 267.989 81.5013 268.31 81.3505 268.665C81.1997 269.02 81.1204 269.401 81.1171 269.786C81.1051 270.303 80.8916 270.794 80.5223 271.156C80.1529 271.517 79.6568 271.72 79.1398 271.722C79.6119 272.319 80.2114 272.803 80.8948 273.139C81.5781 273.475 82.3278 273.653 83.0892 273.662C83.6038 273.668 84.1144 273.572 84.5919 273.38C85.0694 273.188 85.5044 272.904 85.8721 272.544C86.2398 272.184 86.533 271.755 86.7348 271.282C86.9367 270.809 87.0434 270.301 87.0487 269.786C87.0447 269.4 86.9648 269.019 86.8134 268.665C86.6621 268.31 86.4423 267.988 86.1666 267.719C85.891 267.449 85.5649 267.236 85.2069 267.092C84.8489 266.948 84.4661 266.876 84.0803 266.88ZM97.6348 257.81L96.3064 256.508C96.121 256.326 95.8715 256.224 95.6116 256.224C95.3516 256.224 95.1021 256.326 94.9167 256.508L86.0576 265.19L88.7756 267.856L97.6245 259.174C97.7165 259.086 97.7899 258.981 97.8404 258.864C97.8908 258.747 97.9173 258.621 97.9183 258.494C97.9192 258.367 97.8946 258.241 97.8459 258.124C97.7972 258.006 97.7254 257.899 97.6348 257.81Z" fill="#6C63FF"/>
<path opacity="0.7" d="M128.882 176.528H116.406C114.995 176.528 113.851 177.671 113.851 179.081V180.051C113.851 181.462 114.995 182.605 116.406 182.605H128.882C130.293 182.605 131.437 181.462 131.437 180.051V179.081C131.437 177.671 130.293 176.528 128.882 176.528Z" fill="#3F3D56"/>
<path opacity="0.3" d="M138.651 191.721H116.406C114.995 191.721 113.851 192.864 113.851 194.274V195.245C113.851 196.655 114.995 197.798 116.406 197.798H138.651C140.061 197.798 141.205 196.655 141.205 195.245V194.274C141.205 192.864 140.061 191.721 138.651 191.721Z" fill="#6C63FF"/>
<path opacity="0.3" d="M166.01 184.122H116.406C114.995 184.122 113.851 185.265 113.851 186.675V187.646C113.851 189.056 114.995 190.199 116.406 190.199H166.01C167.421 190.199 168.564 189.056 168.564 187.646V186.675C168.564 185.265 167.421 184.122 166.01 184.122Z" fill="#6C63FF"/>
<path d="M97.6756 193.12L89.92 185.317C90.3048 184.313 90.3884 183.219 90.1607 182.169C89.9329 181.118 89.4036 180.157 88.6376 179.403C87.8246 178.597 86.7847 178.058 85.657 177.859C84.5294 177.66 83.3679 177.811 82.3279 178.29L85.9962 181.977L83.4417 184.53L79.7018 180.863C79.2046 181.904 79.0441 183.074 79.2428 184.209C79.4415 185.345 79.9895 186.391 80.8105 187.201C81.5556 187.97 82.5108 188.502 83.5567 188.731C84.6026 188.96 85.6928 188.875 86.6911 188.488L94.4313 196.297C94.5082 196.378 94.6009 196.443 94.7037 196.487C94.8064 196.531 94.9172 196.554 95.0291 196.554C95.141 196.554 95.2518 196.531 95.3545 196.487C95.4573 196.443 95.55 196.378 95.6269 196.297L97.5888 194.325C97.6839 194.26 97.7631 194.174 97.8205 194.074C97.8779 193.973 97.912 193.861 97.9203 193.746C97.9286 193.631 97.911 193.515 97.8686 193.408C97.8263 193.3 97.7603 193.204 97.6756 193.125V193.12Z" fill="#6C63FF"/>
<path opacity="0.7" d="M275.39 251.876H262.914C261.503 251.876 260.359 253.019 260.359 254.429V255.4C260.359 256.81 261.503 257.953 262.914 257.953H275.39C276.801 257.953 277.945 256.81 277.945 255.4V254.429C277.945 253.019 276.801 251.876 275.39 251.876Z" fill="#3F3D56"/>
<path opacity="0.3" d="M285.159 267.069H262.914C261.503 267.069 260.359 268.212 260.359 269.623V270.593C260.359 272.003 261.503 273.146 262.914 273.146H285.159C286.57 273.146 287.713 272.003 287.713 270.593V269.623C287.713 268.212 286.57 267.069 285.159 267.069Z" fill="#6C63FF"/>
<path opacity="0.3" d="M312.518 259.475H262.914C261.503 259.475 260.359 260.618 260.359 262.029V262.999C260.359 264.409 261.503 265.552 262.914 265.552H312.518C313.929 265.552 315.073 264.409 315.073 262.999V262.029C315.073 260.618 313.929 259.475 312.518 259.475Z" fill="#6C63FF"/>
<path d="M234.732 268.627C233.962 269.065 233.091 269.295 232.206 269.295C231.32 269.295 230.449 269.065 229.679 268.627C227.702 269.235 226.491 271.226 226.042 272.988H238.365C237.92 271.226 236.714 269.235 234.732 268.627ZM232.208 259.245C231.33 259.245 230.471 259.506 229.741 259.994C229.011 260.481 228.442 261.175 228.106 261.986C227.77 262.797 227.682 263.69 227.854 264.551C228.026 265.412 228.449 266.203 229.071 266.823C229.692 267.444 230.484 267.866 231.345 268.037C232.207 268.207 233.1 268.119 233.911 267.782C234.722 267.445 235.415 266.876 235.902 266.145C236.389 265.415 236.649 264.556 236.648 263.678C236.647 262.502 236.178 261.374 235.346 260.543C234.513 259.712 233.385 259.245 232.208 259.245ZM232.208 267.059C231.542 267.046 230.893 266.839 230.342 266.464C229.792 266.088 229.362 265.56 229.107 264.945H235.309C235.054 265.56 234.625 266.088 234.074 266.464C233.523 266.839 232.875 267.046 232.208 267.059Z" fill="#6C63FF"/>
<path d="M241.195 266.262C240.548 266.627 239.829 266.848 239.088 266.909C238.347 266.97 237.602 266.869 236.903 266.615C236.589 267.159 236.193 267.652 235.728 268.075C236.764 268.548 237.635 269.318 238.232 270.287H244.828C244.624 269.358 244.181 268.499 243.545 267.794C242.908 267.088 242.098 266.56 241.195 266.262ZM238.671 256.876C237.926 256.875 237.192 257.062 236.538 257.419C235.883 257.776 235.329 258.292 234.926 258.918C235.597 259.307 236.178 259.833 236.631 260.461C237.085 261.089 237.4 261.806 237.557 262.565H241.772C241.515 263.178 241.085 263.704 240.534 264.077C239.984 264.451 239.336 264.656 238.671 264.669C238.308 264.668 237.948 264.602 237.608 264.475C237.549 264.835 237.457 265.189 237.333 265.532C237.765 265.671 238.217 265.74 238.671 265.736C239.849 265.736 240.978 265.269 241.811 264.436C242.643 263.604 243.111 262.475 243.111 261.298C243.111 260.121 242.643 258.992 241.811 258.16C240.978 257.328 239.849 256.86 238.671 256.86V256.876Z" fill="#6C63FF"/>
<path opacity="0.7" d="M128.882 308.39H116.406C114.995 308.39 113.851 309.533 113.851 310.943V311.914C113.851 313.324 114.995 314.467 116.406 314.467H128.882C130.293 314.467 131.437 313.324 131.437 311.914V310.943C131.437 309.533 130.293 308.39 128.882 308.39Z" fill="#3F3D56"/>
<path opacity="0.3" d="M138.651 323.583H116.406C114.995 323.583 113.851 324.726 113.851 326.136V327.107C113.851 328.517 114.995 329.66 116.406 329.66H138.651C140.061 329.66 141.205 328.517 141.205 327.107V326.136C141.205 324.726 140.061 323.583 138.651 323.583Z" fill="#6C63FF"/>
<path opacity="0.3" d="M166.01 315.989H116.406C114.995 315.989 113.851 317.132 113.851 318.542V319.513C113.851 320.923 114.995 322.066 116.406 322.066H166.01C167.421 322.066 168.564 320.923 168.564 319.513V318.542C168.564 317.132 167.421 315.989 166.01 315.989Z" fill="#6C63FF"/>
<path d="M90.2112 310.31H85.1941C84.974 310.307 84.7555 310.348 84.5512 310.43C84.3468 310.511 84.1606 310.632 84.0031 310.786C83.8456 310.94 83.7199 311.123 83.6332 311.325C83.5465 311.527 83.5005 311.745 83.4978 311.965V312.322H83.1811C82.961 312.319 82.7426 312.36 82.5382 312.442C82.3339 312.523 82.1476 312.645 81.9901 312.798C81.8326 312.952 81.7069 313.135 81.6202 313.337C81.5335 313.539 81.4875 313.757 81.4849 313.977V326.045C81.4875 326.493 81.6671 326.923 81.9846 327.241C82.3022 327.558 82.732 327.737 83.1811 327.74H91.9074C92.1273 327.737 92.3444 327.691 92.5464 327.605C92.7484 327.518 92.9313 327.392 93.0846 327.235C93.238 327.077 93.3587 326.891 93.4398 326.687C93.521 326.483 93.561 326.264 93.5577 326.045V325.728H93.9204C94.1402 325.725 94.3574 325.679 94.5594 325.593C94.7614 325.506 94.9443 325.38 95.0976 325.223C95.2509 325.065 95.3716 324.879 95.4528 324.675C95.534 324.47 95.574 324.252 95.5706 324.032V315.672L90.2112 310.31ZM90.2112 312.179L93.7058 315.672H90.2112V312.179ZM92.2242 326.045C92.2284 326.134 92.1977 326.221 92.1385 326.288C92.0793 326.354 91.9964 326.395 91.9074 326.402H83.1811C83.0883 326.397 83.0008 326.358 82.9356 326.291C82.8704 326.225 82.8322 326.137 82.8286 326.045V313.977C82.8351 313.889 82.8754 313.807 82.9411 313.748C83.0068 313.689 83.0928 313.657 83.1811 313.66H83.4978V324.385C83.4978 325.314 83.9372 325.743 84.862 325.743H92.2242V326.045ZM94.2321 324.032C94.2377 324.121 94.2081 324.208 94.1498 324.275C94.0914 324.342 94.009 324.383 93.9204 324.39H85.1941C85.1013 324.385 85.0138 324.345 84.9486 324.279C84.8834 324.213 84.8452 324.125 84.8415 324.032V311.965C84.8481 311.877 84.8884 311.794 84.9541 311.735C85.0198 311.676 85.1058 311.645 85.1941 311.648H88.8675V317.015H94.2321V324.032Z" fill="#6C63FF"/>
<path opacity="0.7" d="M275.39 176.528H262.914C261.503 176.528 260.359 177.671 260.359 179.081V180.051C260.359 181.462 261.503 182.605 262.914 182.605H275.39C276.801 182.605 277.945 181.462 277.945 180.051V179.081C277.945 177.671 276.801 176.528 275.39 176.528Z" fill="#3F3D56"/>
<path opacity="0.3" d="M285.159 191.721H262.914C261.503 191.721 260.359 192.864 260.359 194.274V195.245C260.359 196.655 261.503 197.798 262.914 197.798H285.159C286.57 197.798 287.713 196.655 287.713 195.245V194.274C287.713 192.864 286.57 191.721 285.159 191.721Z" fill="#6C63FF"/>
<path opacity="0.3" d="M312.518 184.122H262.914C261.503 184.122 260.359 185.265 260.359 186.675V187.646C260.359 189.056 261.503 190.199 262.914 190.199H312.518C313.929 190.199 315.073 189.056 315.073 187.646V186.675C315.073 185.265 313.929 184.122 312.518 184.122Z" fill="#6C63FF"/>
<path d="M233.649 180.465H227.835C227.36 180.466 226.905 180.656 226.57 180.992C226.235 181.328 226.047 181.783 226.047 182.258V192.089C226.047 192.563 226.235 193.017 226.57 193.352C226.906 193.688 227.361 193.876 227.835 193.876H243.039C243.514 193.876 243.969 193.688 244.304 193.352C244.639 193.017 244.828 192.563 244.828 192.089V184.254C244.826 183.781 244.637 183.327 244.302 182.992C243.967 182.657 243.513 182.468 243.039 182.467H235.437L233.649 180.455V180.465Z" fill="#6C63FF"/>
<path opacity="0.7" d="M420.075 251.876H407.598C406.187 251.876 405.044 253.019 405.044 254.429V255.4C405.044 256.81 406.187 257.953 407.598 257.953H420.075C421.485 257.953 422.629 256.81 422.629 255.4V254.429C422.629 253.019 421.485 251.876 420.075 251.876Z" fill="#3F3D56"/>
<path opacity="0.3" d="M429.843 267.069H407.598C406.187 267.069 405.044 268.212 405.044 269.623V270.593C405.044 272.003 406.187 273.146 407.598 273.146H429.843C431.254 273.146 432.398 272.003 432.398 270.593V269.623C432.398 268.212 431.254 267.069 429.843 267.069Z" fill="#6C63FF"/>
<path opacity="0.3" d="M457.202 259.475H407.598C406.187 259.475 405.044 260.618 405.044 262.029V262.999C405.044 264.409 406.187 265.552 407.598 265.552H457.202C458.613 265.552 459.757 264.409 459.757 262.999V262.029C459.757 260.618 458.613 259.475 457.202 259.475Z" fill="#6C63FF"/>
<path d="M389.788 260.088L386.329 259.925L386.125 257.672C386.113 257.558 386.079 257.447 386.025 257.346C385.97 257.245 385.896 257.156 385.806 257.084C385.717 257.012 385.614 256.958 385.504 256.926C385.394 256.893 385.278 256.883 385.164 256.896L372.764 257.917C372.65 257.923 372.539 257.951 372.436 258C372.333 258.049 372.241 258.118 372.165 258.203C372.089 258.288 372.031 258.388 371.995 258.496C371.958 258.604 371.944 258.718 371.952 258.832L372.836 268.714C372.863 268.942 372.979 269.15 373.159 269.292C373.339 269.435 373.568 269.5 373.796 269.475L374.425 269.429L374.328 271.349C374.324 271.475 374.345 271.601 374.39 271.719C374.434 271.837 374.502 271.945 374.589 272.037C374.676 272.128 374.781 272.202 374.896 272.253C375.012 272.304 375.136 272.332 375.263 272.334L389.103 272.988C389.356 273.005 389.606 272.921 389.797 272.755C389.989 272.588 390.107 272.353 390.125 272.1L390.707 261.068C390.712 260.944 390.691 260.819 390.647 260.703C390.603 260.586 390.536 260.479 390.451 260.388C390.366 260.297 390.263 260.223 390.149 260.172C390.035 260.12 389.913 260.092 389.788 260.088ZM374.91 260.313L374.614 265.961L373.878 266.982L373.204 259.521V259.475C373.217 259.374 373.263 259.281 373.335 259.21C373.407 259.139 373.501 259.094 373.602 259.082L384.546 258.188C384.647 258.178 384.749 258.206 384.831 258.267C384.913 258.327 384.969 258.415 384.99 258.515L385.098 259.802L375.901 259.363C375.774 259.36 375.647 259.382 375.528 259.429C375.409 259.475 375.301 259.544 375.209 259.632C375.117 259.721 375.043 259.826 374.992 259.943C374.941 260.06 374.913 260.185 374.91 260.313ZM388.909 270.241L385.333 266.068L383.764 267.508L380.867 264.122L375.722 269.597L376.162 261.257C376.186 261.143 376.252 261.041 376.346 260.972C376.44 260.902 376.556 260.869 376.673 260.88L388.884 261.472C388.996 261.474 389.104 261.52 389.184 261.598C389.265 261.677 389.313 261.783 389.318 261.896L388.909 270.241Z" fill="#6C63FF"/>
<path d="M386.702 264.945C386.968 264.946 387.228 264.868 387.45 264.721C387.672 264.574 387.845 264.364 387.947 264.119C388.05 263.874 388.077 263.604 388.026 263.343C387.974 263.082 387.847 262.842 387.659 262.654C387.471 262.465 387.232 262.337 386.971 262.285C386.71 262.232 386.44 262.259 386.194 262.36C385.948 262.462 385.738 262.634 385.59 262.855C385.442 263.076 385.363 263.336 385.363 263.602C385.365 263.956 385.506 264.297 385.757 264.548C386.007 264.799 386.347 264.942 386.702 264.945Z" fill="#6C63FF"/>
<path opacity="0.7" d="M421.291 176.528H408.814C407.403 176.528 406.26 177.671 406.26 179.081V180.051C406.26 181.462 407.403 182.605 408.814 182.605H421.291C422.701 182.605 423.845 181.462 423.845 180.051V179.081C423.845 177.671 422.701 176.528 421.291 176.528Z" fill="#3F3D56"/>
<path opacity="0.3" d="M431.059 191.721H408.814C407.403 191.721 406.26 192.864 406.26 194.274V195.245C406.26 196.655 407.403 197.798 408.814 197.798H431.059C432.47 197.798 433.614 196.655 433.614 195.245V194.274C433.614 192.864 432.47 191.721 431.059 191.721Z" fill="#6C63FF"/>
<path opacity="0.3" d="M458.418 184.122H408.814C407.403 184.122 406.26 185.265 406.26 186.675V187.646C406.26 189.056 407.403 190.199 408.814 190.199H458.418C459.829 190.199 460.973 189.056 460.973 187.646V186.675C460.973 185.265 459.829 184.122 458.418 184.122Z" fill="#6C63FF"/>
<path d="M389.599 184.811C391.08 184.811 392.281 183.611 392.281 182.13C392.281 180.649 391.08 179.449 389.599 179.449C388.117 179.449 386.917 180.649 386.917 182.13C386.917 183.611 388.117 184.811 389.599 184.811Z" fill="#6C63FF"/>
<path d="M387.54 185.291L382.216 188.835L374.839 183.923V182.13L382.216 187.048L386.457 184.224C386.057 183.62 385.839 182.913 385.83 182.189C385.821 181.464 386.021 180.752 386.406 180.138H374.619C374.144 180.14 373.688 180.329 373.352 180.665C373.016 181.001 372.827 181.456 372.826 181.931V193.105C372.827 193.58 373.016 194.035 373.352 194.371C373.688 194.707 374.144 194.896 374.619 194.897H389.824C390.298 194.896 390.753 194.707 391.088 194.371C391.424 194.035 391.612 193.579 391.612 193.105V185.342C391 185.731 390.289 185.935 389.564 185.93C388.839 185.924 388.131 185.71 387.525 185.312L387.54 185.291Z" fill="#6C63FF"/>
<path d="M260.38 383.549C267.739 383.549 273.704 382.404 273.704 380.99C273.704 379.577 267.739 378.432 260.38 378.432C253.021 378.432 247.055 379.577 247.055 380.99C247.055 382.404 253.021 383.549 260.38 383.549Z" fill="#6C63FF"/>
<path d="M260.16 381.93C261.018 381.93 261.713 381.022 261.713 379.903C261.713 378.783 261.018 377.875 260.16 377.875C259.302 377.875 258.607 378.783 258.607 379.903C258.607 381.022 259.302 381.93 260.16 381.93Z" fill="#3F3D56"/>
<path d="M260.16 379.448C261.018 379.448 261.713 378.54 261.713 377.421C261.713 376.301 261.018 375.393 260.16 375.393C259.302 375.393 258.607 376.301 258.607 377.421C258.607 378.54 259.302 379.448 260.16 379.448Z" fill="#3F3D56"/>
<path d="M260.16 376.966C261.018 376.966 261.713 376.058 261.713 374.939C261.713 373.819 261.018 372.911 260.16 372.911C259.302 372.911 258.607 373.819 258.607 374.939C258.607 376.058 259.302 376.966 260.16 376.966Z" fill="#3F3D56"/>
<path d="M260.16 374.484C261.018 374.484 261.713 373.576 261.713 372.457C261.713 371.337 261.018 370.429 260.16 370.429C259.302 370.429 258.607 371.337 258.607 372.457C258.607 373.576 259.302 374.484 260.16 374.484Z" fill="#3F3D56"/>
<path d="M260.16 372.007C261.018 372.007 261.713 371.1 261.713 369.98C261.713 368.86 261.018 367.952 260.16 367.952C259.302 367.952 258.607 368.86 258.607 369.98C258.607 371.1 259.302 372.007 260.16 372.007Z" fill="#3F3D56"/>
<path d="M260.16 369.525C261.018 369.525 261.713 368.618 261.713 367.498C261.713 366.378 261.018 365.47 260.16 365.47C259.302 365.47 258.607 366.378 258.607 367.498C258.607 368.618 259.302 369.525 260.16 369.525Z" fill="#3F3D56"/>
<path d="M260.16 367.043C261.018 367.043 261.713 366.136 261.713 365.016C261.713 363.896 261.018 362.988 260.16 362.988C259.302 362.988 258.607 363.896 258.607 365.016C258.607 366.136 259.302 367.043 260.16 367.043Z" fill="#3F3D56"/>
<path d="M265.964 348.04C266.177 347.771 266.37 347.486 266.541 347.187L262.454 346.518L266.858 346.554C267.28 345.635 267.511 344.639 267.535 343.627C267.56 342.616 267.378 341.61 267.001 340.671L261.09 343.735L266.541 339.726C266.032 338.841 265.345 338.07 264.524 337.462C263.703 336.855 262.765 336.423 261.769 336.193C260.774 335.964 259.741 335.943 258.737 336.131C257.733 336.318 256.778 336.711 255.932 337.284C255.087 337.858 254.369 338.599 253.823 339.463C253.277 340.326 252.915 341.293 252.76 342.302C252.605 343.312 252.66 344.342 252.921 345.33C253.183 346.317 253.645 347.24 254.279 348.04C253.951 348.461 253.666 348.914 253.431 349.394L258.724 352.141L253.104 350.252C252.708 351.421 252.609 352.671 252.818 353.889C253.027 355.106 253.536 356.252 254.3 357.223C253.438 358.318 252.902 359.634 252.753 361.019C252.605 362.404 252.849 363.804 253.458 365.057C254.067 366.31 255.017 367.367 256.198 368.106C257.38 368.846 258.746 369.238 260.14 369.238C261.534 369.238 262.899 368.846 264.081 368.106C265.263 367.367 266.212 366.31 266.821 365.057C267.431 363.804 267.675 362.404 267.526 361.019C267.377 359.634 266.841 358.318 265.979 357.223C267.011 355.913 267.572 354.294 267.572 352.626C267.572 350.959 267.011 349.34 265.979 348.03L265.964 348.04Z" fill="#6C63FF"/>
<path opacity="0.1" d="M252.696 352.631C252.691 354.299 253.251 355.919 254.285 357.228C253.423 358.323 252.887 359.639 252.738 361.024C252.589 362.41 252.833 363.809 253.442 365.062C254.052 366.315 255.001 367.372 256.183 368.112C257.364 368.851 258.73 369.243 260.124 369.243C261.518 369.243 262.884 368.851 264.066 368.112C265.247 367.372 266.197 366.315 266.806 365.062C267.415 363.809 267.659 362.41 267.51 361.024C267.361 359.639 266.826 358.323 265.964 357.228C266.96 355.961 252.696 351.799 252.696 352.631Z" fill="black"/>
<path d="M384.204 199.289C383.985 198.849 383.814 198.387 383.693 197.911C383.642 197.364 383.856 196.644 383.371 196.378C383.1 196.23 382.722 196.343 382.482 196.149C382.334 195.976 382.243 195.762 382.221 195.536C382.102 195.107 381.85 194.728 381.501 194.453C381.152 194.177 380.724 194.02 380.28 194.004C380.791 192.62 382.671 192.283 383.499 191.062C383.912 190.454 383.78 189.336 383.049 189.331C382.872 189.337 382.698 189.381 382.538 189.458L379.815 190.582C379.29 190.788 378.778 191.025 378.282 191.292C376.785 192.145 375.666 193.529 374.66 194.933C373.708 196.174 372.948 197.552 372.407 199.019C372.102 199.923 371.94 200.869 371.926 201.822C371.926 201.92 371.926 202.017 371.926 202.108C371.482 202.185 371.119 202.379 370.654 202.471L369.597 205.265C369.457 205.731 369.222 206.164 368.907 206.536C368.673 206.75 368.424 206.947 368.161 207.124C367.624 207.582 367.208 208.164 366.949 208.82C366.69 209.477 366.596 210.186 366.674 210.887C365.718 211.263 364.94 211.988 364.498 212.915C364.056 213.842 363.983 214.903 364.294 215.882C363.5 216.054 362.764 216.425 362.155 216.962C361.546 217.498 361.084 218.181 360.814 218.946C360.741 219.298 360.585 219.627 360.36 219.906C360.014 220.172 359.584 220.304 359.149 220.279C357.953 220.356 356.911 221.3 355.833 220.79C354.605 220.215 353.232 220.022 351.894 220.238C351.618 220.304 351.334 220.33 351.051 220.315C350.809 220.273 350.576 220.192 350.361 220.075C349.876 219.788 349.348 219.579 348.798 219.457C348.522 219.398 348.235 219.421 347.972 219.522C347.708 219.624 347.481 219.8 347.316 220.029C346.938 219.615 346.713 219.079 346.371 218.635C346.217 218.398 346.002 218.209 345.747 218.087C345.493 217.966 345.21 217.917 344.93 217.945C345.288 217.623 344.93 216.98 344.455 216.868C343.976 216.826 343.494 216.843 343.019 216.919C341.773 216.919 340.812 215.775 339.601 215.473C338.488 215.203 337.001 215.53 336.429 214.529C336.25 214.207 336.199 213.788 335.918 213.548C335.854 213.277 335.73 213.024 335.555 212.808C335.095 212.297 334.324 212.215 333.634 212.236C332.875 212.257 332.124 212.386 331.401 212.619C331.401 212.532 331.355 212.435 331.325 212.333C330.887 211.06 330.01 209.984 328.852 209.299C327.952 208.769 326.977 208.38 325.96 208.145C325.96 208.053 325.96 207.966 325.96 207.874C325.944 206.585 326.144 205.303 326.553 204.08C326.594 203.947 326.645 203.814 326.691 203.681C329.011 203.076 331.129 201.867 332.831 200.178C334.532 198.489 335.757 196.38 336.379 194.065C337.002 191.751 337.001 189.312 336.376 186.998C335.751 184.684 334.525 182.576 332.822 180.889C332.818 180.613 332.782 180.339 332.714 180.072C332.565 179.486 332.286 178.941 331.897 178.478C331.273 177.089 330.303 176.477 329.061 175.894C328.704 175.726 328.326 175.562 327.927 175.384C325.95 174.495 324.039 173.188 321.796 173.193C319.752 173.193 317.78 174.321 315.757 174.281H315.604H315.456H315.272C314.705 174.214 314.025 174.081 313.652 174.515C313.532 174.687 313.436 174.874 313.366 175.072C313.337 175.138 313.303 175.201 313.264 175.261C313.189 175.387 313.102 175.505 313.003 175.613C312.349 176.328 311.251 176.635 310.347 177.115C308.303 178.162 306.964 180.297 306.433 182.533C305.902 184.77 306.086 187.13 306.484 189.397C306.689 190.531 307.128 191.818 307.935 192.533C307.935 192.533 301.104 197.39 302.351 198.079C303.03 198.457 305.861 196.664 308.298 194.954C308.323 195.056 308.344 195.163 308.375 195.265C308.665 196.356 309.037 197.423 309.488 198.457C309.999 199.678 310.735 201.01 312.007 201.363C312.288 201.441 312.579 201.474 312.871 201.46H313.095C313.159 203.329 312.961 205.197 312.508 207.011C311.767 206.969 311.032 207.172 310.418 207.588C310.185 207.817 309.89 207.973 309.57 208.038C309.239 207.997 308.931 207.846 308.696 207.609C307.78 206.948 306.666 206.621 305.538 206.68C304.41 206.74 303.336 207.183 302.494 207.936C300.021 210.269 300.302 214.825 297.385 216.592C296.588 217.077 295.566 217.337 295.096 218.149C294.983 218.409 294.852 218.66 294.703 218.9C294.509 219.117 294.273 219.291 294.008 219.411C293.166 219.788 292.365 220.25 291.617 220.79C291.243 221.064 290.929 221.41 290.692 221.809C290.456 222.207 290.303 222.649 290.242 223.108C290.231 223.78 290.375 224.446 290.661 225.054C291.096 226.123 291.63 227.148 292.255 228.118C291.916 228.557 291.694 229.076 291.612 229.625C291.407 231.06 292.092 232.475 292.169 233.925C292.235 235.191 291.831 236.427 291.607 237.673C290.707 242.545 292.429 247.479 294.161 252.106C294.495 252.858 294.703 253.66 294.774 254.48C294.82 256.013 293.957 257.376 293.717 258.867C293.206 262.003 295.52 264.955 295.571 268.126C295.571 269.592 295.132 271.078 295.5 272.493C295.74 273.438 296.327 274.25 296.746 275.133C297.482 276.696 297.681 278.468 298.386 280.046C299.229 281.763 300.478 283.25 302.024 284.377C302.908 287.18 301.651 290.566 302.024 293.569C302.504 293.379 302.99 293.208 303.48 293.059C303.176 297.522 304.303 301.966 306.699 305.744C307.491 306.98 308.421 308.134 309.018 309.477C309.406 310.435 309.709 311.424 309.923 312.434C310.778 315.999 311.629 319.56 312.477 323.118C313.172 326.004 313.872 328.94 313.662 331.902C313.519 333.945 312.998 336.279 314.265 337.913C314.57 338.224 314.827 338.578 315.027 338.965C315.149 339.42 315.149 339.899 315.027 340.354C314.407 343.798 313.984 347.275 313.76 350.767C313.473 351.15 313.187 351.538 312.927 351.922C310.827 354.986 309.815 358.668 308.998 362.299C307.491 369.433 306.609 376.685 306.362 383.973C305.31 384.927 304.405 386.03 303.674 387.246C302.576 389.289 302.433 391.69 302.315 394.008C302.268 394.384 302.31 394.765 302.438 395.121C302.718 395.522 303.119 395.823 303.582 395.979L304.216 396.281C304.078 396.791 303.955 397.302 303.848 397.838C303.041 396.929 301.605 395.489 301.36 396.541C300.552 400.061 300.114 403.655 300.052 407.266C300.023 407.404 300.028 407.548 300.064 407.684C300.101 407.821 300.17 407.947 300.264 408.052C300.358 408.157 300.476 408.239 300.608 408.29C300.74 408.342 300.882 408.362 301.023 408.348C304.532 408.97 308.09 409.274 311.655 409.258C314.541 409.258 317.423 409.023 320.299 408.803L323.247 408.578C326.279 408.416 329.295 408.042 332.275 407.46C333.578 407.174 334.921 406.77 335.902 405.856C336.883 404.942 337.364 403.379 336.689 402.22C335.867 400.821 333.946 400.719 332.341 400.494C330.751 400.271 329.21 399.781 327.784 399.044C327.462 398.88 327.15 398.696 326.839 398.533C326.921 398.533 327.007 398.492 327.084 398.461C328.463 397.997 329.562 396.929 330.86 396.291C332.392 395.55 334.083 395.382 335.749 395.172C337.415 394.963 339.131 394.662 340.516 393.712C341.814 392.823 342.733 391.204 342.432 389.682C342.411 389.575 342.384 389.47 342.35 389.366C341.839 387.716 340.051 386.812 338.385 386.404C336.72 385.995 334.911 385.75 333.562 384.678L333.363 384.519C333.251 384.422 333.133 384.33 333.011 384.233C333.308 383.731 333.445 383.15 333.404 382.568C333.332 381.654 332.801 380.847 332.438 380.015C331.728 378.355 331.672 376.501 331.478 374.709C330.998 370.199 329.613 365.848 328.571 361.431C328.453 360.92 328.341 360.409 328.228 359.899C329.246 357.788 330.491 355.794 331.943 353.954C333.604 351.879 334.821 349.486 335.519 346.922C335.734 346.135 335.892 345.339 336.056 344.537C337.902 335.314 339.646 326.075 341.287 316.821C341.559 315.503 341.714 314.163 341.752 312.817C342.182 311.597 342.415 310.316 342.442 309.023C342.922 307.149 343.408 305.183 343.014 303.957C342.738 303.089 342.6 300.121 342.447 297.277C342.491 295.752 342.399 294.225 342.171 292.716C342.125 292.456 342.074 292.206 342.018 291.945C341.987 291.792 341.957 291.664 341.926 291.562C341.71 290.707 341.409 289.875 341.027 289.08C340.832 288.605 340.606 288.143 340.352 287.696C340.201 287.432 340.03 287.18 339.841 286.94C340.905 286.986 341.966 287.085 343.019 287.237C343.275 287.272 343.592 287.293 343.75 287.083C343.816 286.963 343.848 286.827 343.842 286.69C343.891 285.485 343.605 284.29 343.014 283.238C342.605 282.513 342.038 281.808 342.054 280.975C342.081 280.587 342.176 280.207 342.335 279.852L343.75 276.052C344.951 272.84 344.378 269.117 345.002 265.746C345.488 263.113 345.798 260.449 345.931 257.774C346.049 255.492 345.977 253.015 344.603 251.186C344.206 250.745 343.863 250.258 343.581 249.736C343.382 249.182 343.298 248.593 343.336 248.005C343.312 244.427 343.384 240.852 343.551 237.28C349.567 237.111 355.558 236.428 361.458 235.237C362.155 235.118 362.839 234.934 363.502 234.686C364.231 234.337 364.917 233.903 365.545 233.394C367.553 231.943 369.592 230.467 371.119 228.517C372.934 226.15 374.074 223.338 374.42 220.376C375.871 219.033 376.642 217.123 377.368 215.269C377.727 214.486 377.954 213.649 378.042 212.792C378.078 211.914 377.501 210.995 377.664 210.132C377.943 208.645 378.693 207.287 379.805 206.26C380.041 206.092 380.22 205.855 380.316 205.581C380.348 205.353 380.307 205.12 380.198 204.917L380.152 204.841C380.295 204.754 380.428 204.662 380.566 204.57C381.041 204.233 381.496 203.86 381.94 203.498C382.62 202.986 383.221 202.376 383.723 201.69C383.971 201.348 384.143 200.956 384.226 200.542C384.309 200.128 384.301 199.7 384.204 199.289ZM318.649 395.035C318.526 395.035 318.404 395.035 318.286 395.065C317.838 395.129 317.402 395.254 316.988 395.438L316.891 395.489C317.453 394.274 317.985 393.038 318.465 391.781C318.521 391.633 318.572 391.485 318.629 391.332L318.567 392.17C318.461 393.124 318.489 394.088 318.649 395.035Z" fill="url(#paint0_linear)"/>
<path d="M325.96 208.926C326.011 210.908 326.685 212.828 326.788 214.81C320.948 215.101 315.18 212.256 309.417 213.134C311.036 212.088 311.9 210.203 312.411 208.349C313.058 205.953 313.25 203.457 312.978 200.99C312.962 200.854 312.938 200.72 312.906 200.587C312.692 199.616 312.135 198.243 312.283 197.482C312.482 196.46 313.432 196.67 314.291 196.726C316.905 196.933 319.508 197.274 322.087 197.747C322.762 197.865 329.306 199.499 329.409 199.33C328.258 201.17 327.308 203.127 326.573 205.168C326.159 206.377 325.952 207.648 325.96 208.926Z" fill="#EE8E9E"/>
<path d="M383.718 202.798C383.217 203.483 382.616 204.089 381.935 204.596C381.491 204.958 381.036 205.331 380.561 205.663C379.713 206.319 378.703 206.73 377.638 206.853C376.249 206.945 373.291 206.128 372.427 204.938C372.058 204.34 371.879 203.643 371.916 202.941C371.93 201.992 372.092 201.051 372.396 200.153C372.938 198.685 373.697 197.308 374.65 196.067C375.671 194.668 376.775 193.294 378.272 192.446C378.768 192.179 379.28 191.942 379.805 191.736L382.528 190.623C382.687 190.544 382.861 190.498 383.039 190.49C383.769 190.49 383.902 191.614 383.488 192.216C382.661 193.432 380.796 193.748 380.27 195.143C380.711 195.156 381.137 195.31 381.485 195.58C381.834 195.851 382.088 196.225 382.211 196.649C382.232 196.874 382.323 197.087 382.472 197.257C382.712 197.446 383.09 197.339 383.361 197.487C383.846 197.742 383.631 198.462 383.682 199.019C383.804 199.492 383.975 199.951 384.193 200.387C384.295 200.8 384.305 201.229 384.223 201.645C384.141 202.062 383.969 202.455 383.718 202.798Z" fill="#EE8E9E"/>
<path d="M303.173 401.638C303.623 401.189 304.359 401.265 304.987 401.362C308.359 401.894 311.766 402.169 315.18 402.184C315.609 400.101 314.367 398.099 313.969 395.985C313.911 395.443 313.774 394.913 313.56 394.412C313.08 393.492 311.997 393.068 310.98 392.88C309.146 392.491 306.275 391.812 305.248 393.666C304.016 395.867 303.623 399.156 303.173 401.638Z" fill="#65617D"/>
<path d="M340.516 393.758C339.131 394.703 337.415 394.994 335.749 395.208C334.083 395.423 332.372 395.586 330.86 396.327C329.562 396.97 328.463 398.022 327.084 398.482C325.804 398.834 324.456 398.855 323.165 398.543C321.633 398.252 319.967 397.69 319.134 396.352C318.388 395.167 318.465 393.661 318.567 392.267C318.69 390.689 318.807 389.1 318.92 387.517C318.915 387.116 319.017 386.721 319.216 386.373C320.335 384.739 323.058 387.052 324.514 387.052C326.823 387.052 329.301 385.796 330.962 384.269C331.111 384.117 331.283 383.989 331.473 383.891C332.132 383.595 332.791 384.141 333.373 384.616L333.573 384.775C334.921 385.842 336.73 386.062 338.396 386.496C340.061 386.93 341.844 387.798 342.36 389.442C342.395 389.544 342.422 389.648 342.442 389.754C342.733 391.261 341.798 392.869 340.516 393.758Z" fill="#3F3D56"/>
<path d="M340.516 393.758C339.131 394.703 337.415 394.994 335.749 395.208C334.083 395.423 332.372 395.586 330.86 396.327C329.562 396.97 328.463 398.022 327.084 398.482C325.804 398.834 324.456 398.855 323.165 398.543C321.633 398.252 319.967 397.69 319.134 396.352C318.388 395.167 318.465 393.661 318.567 392.267C318.69 390.689 318.807 389.1 318.92 387.517C318.915 387.116 319.017 386.721 319.216 386.373C320.335 384.739 323.058 387.052 324.514 387.052C326.823 387.052 329.301 385.796 330.962 384.269C331.111 384.117 331.283 383.989 331.473 383.891C332.132 383.595 332.791 384.141 333.373 384.616L333.573 384.775C334.921 385.842 336.73 386.062 338.396 386.496C340.061 386.93 341.844 387.798 342.36 389.442C342.395 389.544 342.422 389.648 342.442 389.754C342.733 391.261 341.798 392.869 340.516 393.758Z" fill="#434175"/>
<path d="M340.516 394.289C339.131 395.234 337.415 395.53 335.749 395.745C334.083 395.959 332.372 396.117 330.86 396.858C329.562 397.501 328.463 398.553 327.084 399.013C325.804 399.365 324.456 399.387 323.165 399.074C321.517 398.729 320.07 397.752 319.134 396.352C318.388 395.167 318.465 393.661 318.567 392.267C318.69 390.689 318.807 389.1 318.92 387.517C318.915 387.116 319.017 386.721 319.216 386.373C320.335 384.739 323.058 387.052 324.514 387.052C326.823 387.052 329.301 385.796 330.962 384.269C331.111 384.117 331.283 383.989 331.473 383.891C332.132 383.595 332.791 384.141 333.373 384.616C332.991 385.803 332.446 386.93 331.754 387.967C331.194 388.844 330.444 389.585 329.56 390.135C328.676 390.685 327.68 391.029 326.645 391.143C325.623 391.22 324.555 391.015 323.579 391.281C322.603 391.547 321.653 392.568 322.006 393.538C322.358 394.509 323.569 394.687 324.56 394.744C325.965 394.905 327.387 394.804 328.755 394.447C329.572 394.177 330.323 393.727 331.115 393.395C334.497 391.996 338.779 392.777 341.568 390.408C341.835 390.167 342.12 389.949 342.422 389.754C343.162 391.281 341.798 393.426 340.516 394.289Z" fill="#E8EAF2"/>
<path opacity="0.05" d="M340.516 394.289C339.131 395.234 337.415 395.53 335.749 395.745C334.083 395.959 332.372 396.117 330.86 396.858C329.562 397.501 328.463 398.553 327.084 399.013C325.804 399.365 324.456 399.387 323.165 399.074C321.517 398.729 320.07 397.752 319.134 396.352C318.388 395.167 318.465 393.661 318.567 392.267C318.69 390.689 318.807 389.1 318.92 387.517C318.915 387.116 319.017 386.721 319.216 386.373C320.335 384.739 323.058 387.052 324.514 387.052C326.823 387.052 329.301 385.796 330.962 384.269C331.111 384.117 331.283 383.989 331.473 383.891C332.132 383.595 332.791 384.141 333.373 384.616C332.991 385.803 332.446 386.93 331.754 387.967C331.194 388.844 330.444 389.585 329.56 390.135C328.676 390.685 327.68 391.029 326.645 391.143C325.623 391.22 324.555 391.015 323.579 391.281C322.603 391.547 321.653 392.568 322.006 393.538C322.358 394.509 323.569 394.687 324.56 394.744C325.965 394.905 327.387 394.804 328.755 394.447C329.572 394.177 330.323 393.727 331.115 393.395C334.497 391.996 338.779 392.777 341.568 390.408C341.835 390.167 342.12 389.949 342.422 389.754C343.162 391.281 341.798 393.426 340.516 394.289Z" fill="black"/>
<path d="M303.807 290.812C302.737 296.095 303.759 301.587 306.658 306.132C307.45 307.358 308.38 308.512 308.977 309.845C309.366 310.799 309.669 311.785 309.882 312.792L312.436 323.414C313.131 326.285 313.831 329.206 313.622 332.152C313.478 334.195 312.957 336.509 314.224 338.133C314.529 338.442 314.786 338.794 314.986 339.18C315.108 339.631 315.108 340.107 314.986 340.559C313.688 348.275 312.722 356.339 315.067 363.8C317.198 370.567 317.321 378.064 319.129 384.918C319.275 385.788 319.663 386.6 320.248 387.262C320.733 387.666 321.313 387.941 321.934 388.059C324.601 388.697 327.416 387.951 329.899 386.802C331.646 385.99 333.527 384.57 333.378 382.655C333.307 381.741 332.776 380.939 332.413 380.102C331.703 378.452 331.646 376.614 331.452 374.826C330.972 370.342 329.587 366.012 328.545 361.63C327.503 357.248 326.788 352.657 327.672 348.234C329.481 339.088 332.374 330.191 336.291 321.729C336.462 321.28 336.733 320.875 337.083 320.544C337.475 320.32 337.849 320.066 338.201 319.783C338.472 319.363 338.646 318.889 338.712 318.394C339.101 316.995 340.245 315.958 341.027 314.733C342.984 311.628 342.365 307.649 342.294 303.982C342.222 300.408 342.733 296.833 342.151 293.299C341.568 289.765 339.576 286.18 336.178 285.097C334.497 284.55 332.678 284.678 330.921 284.852C321.607 285.771 312.554 287.461 303.807 290.812Z" fill="#696791"/>
<path opacity="0.1" d="M303.807 291.322C302.737 296.606 303.759 302.098 306.658 306.643C307.45 307.869 308.38 309.023 308.977 310.356C309.366 311.309 309.669 312.295 309.882 313.303L312.436 323.925C313.131 326.795 313.831 329.716 313.622 332.663C313.478 334.706 312.957 337.019 314.224 338.643C314.529 338.952 314.786 339.305 314.986 339.69C315.108 340.142 315.108 340.618 314.986 341.069C313.688 348.786 312.722 356.85 315.067 364.311C317.198 371.078 317.321 378.575 319.129 385.428C319.275 386.299 319.663 387.111 320.248 387.773C320.733 388.177 321.313 388.451 321.934 388.569C324.601 389.208 327.416 388.462 329.899 387.313C331.646 386.501 333.527 385.081 333.378 383.166C333.307 382.252 332.776 381.45 332.413 380.613C331.703 378.963 331.646 377.124 331.452 375.337C330.972 370.853 329.587 366.522 328.545 362.141C327.503 357.759 326.788 353.168 327.672 348.745C329.481 339.599 332.374 330.701 336.291 322.24C336.462 321.79 336.733 321.385 337.083 321.055C337.475 320.831 337.849 320.577 338.201 320.294C338.472 319.874 338.646 319.4 338.712 318.905C339.101 317.506 340.245 316.469 341.027 315.243C342.984 312.138 342.365 308.16 342.294 304.493C342.222 300.918 342.733 297.343 342.151 293.809C341.568 290.275 339.576 286.69 336.178 285.608C334.497 285.061 332.678 285.189 330.921 285.362C321.607 286.282 312.554 287.972 303.807 291.322Z" fill="black"/>
<path d="M341.757 313.175C341.73 314.56 341.574 315.94 341.292 317.296C339.647 326.489 337.897 335.681 336.04 344.874C335.877 345.671 335.718 346.467 335.504 347.249C334.804 349.801 333.587 352.183 331.927 354.245C324.187 363.892 323.518 377.901 319.318 389.534C319.032 390.321 318.751 391.112 318.45 391.889C317.69 393.859 316.825 395.787 315.859 397.665C315.753 397.936 315.577 398.174 315.348 398.354C315.089 398.487 314.797 398.546 314.505 398.523C310.726 398.542 306.992 397.692 303.592 396.041C303.108 395.859 302.699 395.519 302.433 395.075C302.305 394.721 302.263 394.341 302.31 393.967C302.428 391.664 302.571 389.274 303.669 387.246C304.4 386.034 305.305 384.937 306.356 383.988C306.601 376.738 307.483 369.523 308.993 362.427C309.81 358.811 310.822 355.159 312.922 352.105C314.454 349.848 316.692 347.621 316.416 344.899C316.299 343.704 315.798 342.218 316.769 341.519C317.193 341.207 317.821 341.166 318.112 340.727C318.227 340.52 318.291 340.289 318.301 340.053C318.501 338.186 318.383 336.299 317.954 334.471C317.601 333.276 317.323 332.06 317.121 330.83C317.027 330.213 317.06 329.583 317.217 328.979C317.374 328.375 317.653 327.809 318.036 327.316C318.087 324.829 318.036 322.25 318.072 319.768C318.17 318.354 318.051 316.933 317.719 315.555C317.535 314.906 317.244 314.283 317.101 313.619C316.59 311.234 317.877 308.374 316.334 306.469C315.691 305.683 314.7 305.29 313.857 304.723C312.203 303.524 311.004 301.802 310.454 299.836C309.905 297.88 309.579 295.869 309.483 293.84C309.435 293.411 309.435 292.977 309.483 292.548C309.508 292.324 309.566 292.105 309.657 291.899C310.137 290.822 311.425 290.403 312.574 290.127C319.871 288.379 327.351 287.504 334.855 287.523C337.634 285.633 339.193 286.312 340.373 288.309C341.021 289.533 341.546 290.817 341.941 292.144C342.452 293.768 342.513 302.869 343.035 304.488C343.699 306.607 341.732 310.948 341.757 313.175Z" fill="#696791"/>
<path d="M291.566 230.473C291.361 231.903 292.046 233.307 292.122 234.752C292.189 236.014 291.785 237.244 291.56 238.485C290.661 243.327 292.383 248.235 294.115 252.841C294.449 253.588 294.656 254.386 294.728 255.201C294.774 256.702 293.911 258.081 293.67 259.567C293.16 262.687 295.474 265.619 295.525 268.76C295.525 270.215 295.086 271.696 295.454 273.101C295.694 274.04 296.281 274.852 296.695 275.726C297.436 277.258 297.635 279.045 298.34 280.613C299.612 283.447 302.346 285.301 304.951 287.002C306.428 286.491 308.017 285.924 308.844 284.591C309.202 283.935 309.432 283.218 309.524 282.477C310.086 279.244 310.066 275.945 310.035 272.666C310.091 269.844 309.949 267.022 309.611 264.22C309.1 260.645 307.93 257.223 307.097 253.714C306.075 249.297 305.518 244.731 303.889 240.487C302.453 236.764 300.225 233.419 297.875 230.212C296.981 228.992 296.271 227.245 294.534 227.526C293.796 227.653 293.116 228.004 292.584 228.531C292.053 229.058 291.698 229.736 291.566 230.473Z" fill="#434175"/>
<path opacity="0.05" d="M291.566 229.451C291.361 230.881 292.046 232.286 292.122 233.731C292.189 234.992 291.785 236.223 291.56 237.464C290.661 242.305 292.383 247.213 294.115 251.82C294.449 252.567 294.656 253.364 294.728 254.179C294.774 255.681 293.911 257.06 293.67 258.546C293.16 261.666 295.474 264.597 295.525 267.738C295.525 269.194 295.086 270.675 295.454 272.079C295.694 273.019 296.281 273.831 296.695 274.704C297.436 276.236 297.635 278.024 298.34 279.591C299.612 282.426 302.346 284.28 304.951 285.98C306.428 285.47 308.017 284.903 308.844 283.57C309.202 282.914 309.432 282.197 309.524 281.456C310.086 278.223 310.066 274.924 310.035 271.645C310.091 268.823 309.949 266 309.611 263.198C309.1 259.623 307.93 256.202 307.097 252.693C306.075 248.276 305.518 243.71 303.889 239.466C302.453 235.743 300.225 232.398 297.875 229.191C296.981 227.97 296.271 226.224 294.534 226.504C293.796 226.631 293.116 226.982 292.584 227.509C292.053 228.037 291.698 228.715 291.566 229.451Z" fill="black"/>
<path opacity="0.1" d="M329.363 199.315C328.212 201.154 327.262 203.111 326.527 205.152C325.474 205.412 324.393 205.542 323.308 205.54C319.093 205.54 316.115 203.145 313.637 200.117C313.422 199.146 312.104 198.243 312.237 197.482C312.436 196.46 313.387 196.67 314.245 196.726C316.859 196.933 319.462 197.274 322.041 197.747C322.716 197.829 329.26 199.484 329.363 199.315Z" fill="black"/>
<path d="M323.308 205.173C330.76 205.173 336.801 199.134 336.801 191.685C336.801 184.236 330.76 178.198 323.308 178.198C315.856 178.198 309.815 184.236 309.815 191.685C309.815 199.134 315.856 205.173 323.308 205.173Z" fill="#EE8E9E"/>
<path opacity="0.1" d="M340.357 288.319C338.023 288.181 335.667 288.278 333.327 288.37C331.861 288.387 330.398 288.537 328.959 288.82C327.186 289.223 325.531 290.03 323.784 290.536C320.984 291.348 318.031 291.384 315.134 291.67C313.229 291.853 311.337 292.15 309.468 292.558C309.493 292.334 309.551 292.116 309.642 291.91C310.122 290.832 311.409 290.413 312.559 290.137C319.856 288.389 327.336 287.515 334.84 287.533C337.619 285.669 339.177 286.323 340.357 288.319Z" fill="black"/>
<path d="M331.161 213.768C330.573 214.447 329.782 215.198 328.913 214.978C328.597 214.87 328.3 214.711 328.034 214.508C326.502 213.487 324.57 213.272 322.741 212.976C319.053 212.421 315.409 211.602 311.838 210.525C310.8 210.149 309.712 209.929 308.61 209.871C306.326 209.871 304.297 211.403 302.867 213.18C301.436 214.958 300.415 217.046 299.01 218.849C297.988 220.136 296.813 221.27 295.878 222.603C293.517 225.968 293.006 230.36 293.619 234.425C294.233 238.491 295.852 242.326 297.467 246.11C298.322 248.32 299.372 250.449 300.604 252.473C300.062 255.538 300.348 259.113 301.82 261.87C302.295 262.774 302.882 263.653 303.041 264.664C303.112 265.345 303.085 266.033 302.959 266.707L302.269 271.589C302.06 273.075 301.85 274.561 301.579 276.042C301.069 278.744 300.415 281.66 301.666 284.121C303.163 287.053 301.59 290.806 301.983 294.075C306.205 292.444 310.629 291.394 315.134 290.954C318.031 290.668 320.984 290.633 323.784 289.821C325.531 289.31 327.186 288.508 328.959 288.1C330.398 287.819 331.861 287.67 333.327 287.655C336.561 287.528 339.816 287.395 343.035 287.87C343.29 287.911 343.607 287.931 343.765 287.722C343.831 287.605 343.865 287.473 343.862 287.339C343.911 286.14 343.624 284.952 343.035 283.907C342.626 283.187 342.059 282.482 342.074 281.655C342.102 281.268 342.197 280.89 342.355 280.536L343.77 276.757C344.971 273.565 344.399 269.858 345.022 266.507C345.508 263.887 345.818 261.238 345.952 258.576C346.069 256.304 345.998 253.842 344.624 252.024C344.227 251.584 343.884 251.099 343.602 250.579C343.402 250.028 343.319 249.442 343.356 248.858C343.326 244.309 343.45 239.76 343.729 235.212C342.534 233.062 341.282 230.866 340.087 228.716C338.692 226.213 337.282 223.66 336.72 220.851C336.347 218.997 336.357 217.082 336.091 215.208C336.063 214.731 335.898 214.272 335.616 213.885C335.356 213.658 335.049 213.489 334.718 213.391C334.386 213.294 334.037 213.269 333.695 213.318C332.832 213.337 331.978 213.489 331.161 213.768Z" fill="#434175"/>
<path opacity="0.1" d="M380.561 205.663C379.713 206.319 378.703 206.73 377.638 206.853C376.249 206.945 373.291 206.128 372.427 204.938C372.058 204.34 371.879 203.643 371.916 202.941C372.105 202.881 372.301 202.843 372.499 202.829C374.008 202.664 375.534 202.726 377.025 203.012C378.497 203.37 379.917 204.264 380.535 205.648L380.561 205.663Z" fill="black"/>
<path d="M335.667 234.834C336.49 235.855 337.343 236.907 338.508 237.515C339.852 238.21 341.43 238.225 342.938 238.194C349.155 238.056 355.349 237.373 361.448 236.152C362.144 236.032 362.828 235.849 363.491 235.605C364.22 235.256 364.905 234.824 365.535 234.318C367.543 232.878 369.581 231.407 371.109 229.461C372.923 227.112 374.064 224.314 374.41 221.367C375.86 220.034 376.632 218.129 377.357 216.296C377.716 215.518 377.944 214.686 378.032 213.834C378.068 212.961 377.49 212.047 377.654 211.189C377.932 209.707 378.683 208.356 379.794 207.338C380.031 207.17 380.21 206.933 380.305 206.659C380.338 206.432 380.296 206.201 380.188 206C379.565 204.616 378.144 203.727 376.673 203.365C375.18 203.076 373.652 203.014 372.141 203.181C371.638 203.277 371.143 203.41 370.659 203.579L369.602 206.352C369.462 206.818 369.227 207.249 368.912 207.619C368.678 207.833 368.429 208.029 368.166 208.206C367.63 208.66 367.214 209.239 366.955 209.892C366.695 210.545 366.601 211.252 366.679 211.95C365.726 212.32 364.949 213.039 364.507 213.961C364.065 214.883 363.99 215.939 364.299 216.914C363.505 217.085 362.769 217.456 362.16 217.993C361.551 218.529 361.089 219.212 360.819 219.978C360.745 220.327 360.589 220.655 360.365 220.933C360.023 221.196 359.6 221.333 359.169 221.321C357.974 221.392 356.931 222.342 355.853 221.832C354.625 221.259 353.253 221.067 351.914 221.28C351.638 221.346 351.354 221.372 351.071 221.357C350.83 221.315 350.597 221.233 350.381 221.117C349.895 220.833 349.368 220.627 348.818 220.504C348.542 220.445 348.255 220.468 347.992 220.569C347.729 220.671 347.501 220.847 347.336 221.076C346.958 220.662 346.734 220.131 346.391 219.687C346.238 219.45 346.022 219.261 345.768 219.14C345.514 219.018 345.231 218.969 344.95 218.997C345.308 218.681 344.95 218.042 344.475 217.925C343.996 217.888 343.515 217.906 343.04 217.976C341.793 217.976 340.833 216.837 339.622 216.541C338.508 216.27 337.021 216.597 336.449 215.601C336.25 215.249 336.209 214.769 335.867 214.58C335.632 214.464 335.365 214.433 335.11 214.493C334.32 214.597 333.552 214.83 332.837 215.182C331.667 219.779 332.28 224.497 333.169 229.124C333.497 231.21 334.358 233.177 335.667 234.834Z" fill="#434175"/>
<path opacity="0.1" d="M335.631 251.202L329.823 262.917C330.451 261.829 331.774 261.385 332.822 260.716C334.144 259.756 335.138 258.411 335.667 256.865C336.193 255.325 336.561 253.736 336.766 252.121C336.883 251.381 337.128 250.339 336.766 249.665C336.122 249.802 335.907 250.655 335.631 251.202Z" fill="black"/>
<path opacity="0.1" d="M318.915 261.155C317.602 262.452 315.997 263.407 314.557 264.557C311.185 267.243 308.783 270.92 306.438 274.53C305.775 275.474 305.219 276.488 304.778 277.554C305.054 277.789 305.462 277.554 305.738 277.304L310.301 273.3C310.864 272.844 311.378 272.331 311.833 271.768C312.625 270.7 312.978 269.372 313.698 268.254C314.481 267.183 315.416 266.232 316.472 265.43C317.52 264.531 322.333 260.461 321.163 258.878C320.299 259.286 319.604 260.461 318.915 261.155Z" fill="black"/>
<path d="M328.882 210.382C327.386 209.556 325.749 209.017 324.054 208.793C323.049 208.566 322.016 208.492 320.989 208.574C320.039 208.691 319.124 209.059 318.169 209.085C316.825 209.161 315.543 208.615 314.245 208.262C312.947 207.91 311.45 207.752 310.362 208.553C310.129 208.782 309.834 208.939 309.514 209.003C309.184 208.959 308.877 208.808 308.64 208.574C307.722 207.917 306.609 207.592 305.482 207.651C304.355 207.711 303.281 208.151 302.438 208.901C299.965 211.219 300.246 215.749 297.329 217.511C296.532 218.022 295.51 218.252 295.04 219.043C294.926 219.3 294.794 219.55 294.646 219.789C294.454 220.007 294.217 220.181 293.952 220.3C293.11 220.675 292.308 221.135 291.56 221.673C291.187 221.944 290.873 222.288 290.637 222.684C290.4 223.08 290.247 223.52 290.186 223.977C290.175 224.645 290.319 225.308 290.605 225.912C292.024 229.39 294.486 232.344 297.652 234.368C300.818 236.391 304.534 237.386 308.288 237.214C308.955 237.252 309.614 237.047 310.142 236.637C310.42 236.322 310.64 235.961 310.791 235.569C312.155 232.715 314.715 230.605 316.34 227.909C317.305 226.29 317.929 224.477 318.94 222.884C320.473 220.468 322.792 218.681 325.071 216.949C326.359 215.974 327.784 214.947 329.398 215.014C330.834 215.075 331.881 215.152 331.35 213.395C330.913 212.129 330.038 211.06 328.882 210.382Z" fill="#434175"/>
<path opacity="0.05" d="M328.882 210.382C327.386 209.556 325.749 209.017 324.054 208.793C323.049 208.566 322.016 208.492 320.989 208.574C320.039 208.691 319.124 209.059 318.169 209.085C316.825 209.161 315.543 208.615 314.245 208.262C312.947 207.91 311.45 207.752 310.362 208.553C310.129 208.782 309.834 208.939 309.514 209.003C309.184 208.959 308.877 208.808 308.64 208.574C307.722 207.917 306.609 207.592 305.482 207.651C304.355 207.711 303.281 208.151 302.438 208.901C299.965 211.219 300.246 215.749 297.329 217.511C296.532 218.022 295.51 218.252 295.04 219.043C294.926 219.3 294.794 219.55 294.646 219.789C294.454 220.007 294.217 220.181 293.952 220.3C293.11 220.675 292.308 221.135 291.56 221.673C291.187 221.944 290.873 222.288 290.637 222.684C290.4 223.08 290.247 223.52 290.186 223.977C290.175 224.645 290.319 225.308 290.605 225.912C292.024 229.39 294.486 232.344 297.652 234.368C300.818 236.391 304.534 237.386 308.288 237.214C308.955 237.252 309.614 237.047 310.142 236.637C310.42 236.322 310.64 235.961 310.791 235.569C312.155 232.715 314.715 230.605 316.34 227.909C317.305 226.29 317.929 224.477 318.94 222.884C320.473 220.468 322.792 218.681 325.071 216.949C326.359 215.974 327.784 214.947 329.398 215.014C330.834 215.075 331.881 215.152 331.35 213.395C330.913 212.129 330.038 211.06 328.882 210.382Z" fill="black"/>
<path d="M335.907 405.866C334.926 406.781 333.583 407.179 332.28 407.46C329.3 408.042 326.284 408.416 323.252 408.578L320.304 408.803C317.428 409.023 314.546 409.242 311.66 409.252C308.094 409.263 304.534 408.956 301.023 408.333C300.861 408.327 300.703 408.288 300.558 408.217C300.413 408.147 300.284 408.047 300.18 407.925C300.07 407.72 300.025 407.486 300.052 407.256C300.114 403.662 300.552 400.084 301.36 396.582C301.692 395.147 304.272 398.369 304.389 398.507C304.656 398.883 305.007 399.191 305.414 399.407C305.821 399.623 306.274 399.74 306.735 399.748C309.703 399.912 313.029 398.109 315.384 396.505C315.89 396.129 316.427 395.796 316.988 395.51C317.401 395.325 317.838 395.201 318.286 395.142C319.813 395 321.349 395.311 322.7 396.036C324.473 396.914 326.026 398.175 327.81 399.1C329.237 399.831 330.778 400.318 332.367 400.54C333.971 400.76 335.892 400.867 336.715 402.256C337.369 403.405 336.878 404.957 335.907 405.866Z" fill="#434175"/>
<path d="M335.907 406.398C334.926 407.312 333.583 407.71 332.28 407.991C329.3 408.573 326.284 408.947 323.252 409.109L320.304 409.334C317.428 409.554 314.546 409.773 311.66 409.784C308.093 409.797 304.533 409.489 301.022 408.864C300.862 408.859 300.704 408.821 300.559 408.751C300.413 408.682 300.284 408.583 300.179 408.461C299.902 408.093 299.68 407.687 299.52 407.256C299.582 403.681 300.542 400.08 301.36 396.582C301.692 395.147 304.272 398.369 304.389 398.507C304.656 398.883 305.007 399.191 305.414 399.407C305.821 399.623 306.274 399.74 306.734 399.748C309.703 399.912 313.029 398.109 315.384 396.505C315.89 396.129 316.427 395.796 316.988 395.51C317.401 395.325 317.838 395.201 318.286 395.142C317.903 397.277 314.843 399.856 313.259 400.642C310.06 402.23 306.259 401.434 302.693 401.623C302.432 401.617 302.173 401.679 301.942 401.801C301.518 402.087 301.493 402.695 301.503 403.206C301.533 404.054 301.641 405.054 302.381 405.483C302.75 405.662 303.157 405.748 303.567 405.734C312.36 406.118 321.17 405.809 329.914 404.809C331.385 404.712 332.833 404.39 334.206 403.854C335.104 403.435 335.941 402.895 336.694 402.251C337.818 403.129 336.878 405.489 335.907 406.398Z" fill="#E8EAF2"/>
<path d="M328.561 191.542C328.509 192.936 329.46 195.628 326.849 194.887C325.316 194.438 324.856 192.594 322.884 193.003C320.912 193.411 320.452 195.847 319.788 197.436C319.246 198.698 318.404 199.809 317.336 200.674C316.268 201.539 315.005 202.131 313.657 202.4C313.101 202.53 312.522 202.53 311.966 202.4C310.694 202.037 309.969 200.725 309.447 199.509C308.997 198.479 308.625 197.418 308.334 196.333C308.128 195.57 307.993 194.791 307.93 194.004C307.887 193.468 307.887 192.93 307.93 192.395C308.165 189.224 309.974 186.333 312.283 184.147C314.592 181.961 317.392 180.378 320.177 178.821C321.084 178.257 322.063 177.821 323.089 177.524C324.098 177.322 325.132 177.281 326.154 177.401C327.505 177.456 328.833 177.768 330.068 178.32C330.573 178.569 331.036 178.895 331.442 179.285C332.022 179.82 332.436 180.51 332.638 181.272C333.149 183.315 331.83 185.169 330.768 186.788C329.797 188.223 328.627 189.745 328.561 191.542Z" fill="#434175"/>
<path opacity="0.1" d="M372.453 221.474C371.896 220.07 369.556 216.183 370.23 214.835C370.936 215.831 371.533 216.899 372.013 218.022C372.453 219.12 372.105 220.58 372.453 221.474Z" fill="black"/>
<path opacity="0.1" d="M330.798 186.782C331.861 185.164 333.169 183.315 332.668 181.267C332.42 180.363 331.882 179.566 331.135 178.999C331.309 179.298 331.439 179.62 331.524 179.954C332.035 181.997 330.717 183.846 329.654 185.47C328.709 186.91 327.539 188.437 327.467 190.23C327.416 191.624 328.371 194.315 325.761 193.575C324.228 193.125 323.768 191.282 321.791 191.69C319.814 192.099 319.364 194.53 318.695 196.123C318.153 197.386 317.311 198.498 316.243 199.363C315.175 200.228 313.912 200.819 312.564 201.087C312.008 201.217 311.429 201.217 310.873 201.087C310.586 201.003 310.317 200.87 310.076 200.694C310.474 201.489 311.164 202.1 312.002 202.4C312.56 202.527 313.14 202.527 313.698 202.4C315.046 202.129 316.308 201.535 317.376 200.67C318.444 199.804 319.286 198.693 319.829 197.431C320.498 195.837 320.933 193.416 322.925 193.003C324.918 192.589 325.337 194.433 326.895 194.882C329.506 195.638 328.55 192.931 328.601 191.537C328.683 189.75 329.858 188.223 330.798 186.782Z" fill="black"/>
<path opacity="0.1" d="M331.376 184.009C331.134 184.407 330.868 184.789 330.579 185.153C330.028 185.849 329.41 186.488 328.734 187.063C328.331 187.411 327.917 187.732 327.488 188.039C326.687 188.603 325.845 189.107 324.969 189.545C322.375 190.752 319.677 191.718 316.907 192.431L311.522 193.999C310.858 194.509 309.647 195.398 308.313 196.333C308.108 195.57 307.973 194.791 307.91 194.004C307.866 193.468 307.866 192.93 307.91 192.395C308.145 189.224 309.953 186.333 312.263 184.147C314.572 181.961 317.372 180.378 320.156 178.821C321.063 178.257 322.043 177.821 323.068 177.524C324.077 177.322 325.112 177.281 326.134 177.401C327.485 177.456 328.813 177.768 330.047 178.32C330.552 178.569 331.016 178.895 331.422 179.285C331.726 179.733 331.959 180.226 332.111 180.746C332.448 181.844 331.978 183.019 331.376 184.009Z" fill="black"/>
<path d="M331.376 183.647C331.134 184.044 330.868 184.426 330.579 184.791C330.028 185.486 329.41 186.126 328.734 186.701C328.331 187.048 327.917 187.37 327.488 187.676C326.686 188.239 325.844 188.742 324.969 189.183C322.375 190.389 319.677 191.355 316.907 192.068L311.522 193.631C309.642 195.056 303.347 199.713 302.29 199.131C301.043 198.447 307.874 193.61 307.874 193.61L308.185 193.85C307.164 193.222 306.653 191.767 306.438 190.505C306.04 188.248 305.851 185.909 306.387 183.677C306.924 181.446 308.262 179.331 310.301 178.29C311.205 177.82 312.303 177.508 312.957 176.793C313.055 176.685 313.143 176.566 313.218 176.441C313.258 176.383 313.292 176.321 313.32 176.257C313.389 176.059 313.485 175.871 313.606 175.7C313.979 175.271 314.659 175.399 315.226 175.47H315.41C315.51 175.476 315.611 175.476 315.711 175.47C317.755 175.516 319.701 174.388 321.75 174.388C323.993 174.388 325.904 175.685 327.881 176.574C328.28 176.752 328.658 176.916 329.015 177.084C330.446 177.748 331.519 178.458 332.081 180.343C332.449 181.487 331.979 182.666 331.376 183.647Z" fill="#6C63FF"/>
<path opacity="0.1" d="M315.711 175.501C315.824 175.691 315.864 175.916 315.825 176.134C315.786 176.351 315.669 176.547 315.497 176.686C315.248 176.864 314.954 176.968 314.648 176.987C314.428 177.017 314.206 177.034 313.984 177.038C313.685 177.061 313.385 177.01 313.111 176.89C313.057 176.862 313.006 176.83 312.957 176.793C313.055 176.685 313.143 176.567 313.218 176.441C313.269 176.482 313.32 176.471 313.519 176.441C313.89 176.423 314.257 176.362 314.613 176.257C314.76 176.217 314.899 176.149 315.021 176.058C315.204 175.903 315.338 175.699 315.41 175.471L315.711 175.501Z" fill="black"/>
<path opacity="0.1" d="M308.007 193.559C308.292 193.737 308.61 193.855 308.942 193.907C309.178 193.966 309.419 194.006 309.662 194.024C310.281 193.993 310.885 193.818 311.425 193.513" fill="black"/>
</g>
<defs>
<linearGradient id="paint0_linear" x1="337.236" y1="409.252" x2="337.236" y2="173.188" gradientUnits="userSpaceOnUse">
<stop stop-color="#808080" stop-opacity="0.25"/>
<stop offset="0.54" stop-color="#808080" stop-opacity="0.12"/>
<stop offset="1" stop-color="#808080" stop-opacity="0.1"/>
</linearGradient>
<clipPath id="clip0">
<rect width="562" height="412" fill="white"/>
</clipPath>
</defs>
</svg>
