<svg width="491" height="365" viewBox="0 0 491 365" fill="none" xmlns="http://www.w3.org/2000/svg">
<g clip-path="url(#clip0)">
<path opacity="0.1" d="M285.275 51.1707C253.797 50.3584 223.818 42.8093 195.191 34.55C166.564 26.2907 138.209 17.1218 107.486 12.744C87.7248 9.92771 65.1236 9.52885 49.2051 17.4039C33.8799 24.9725 28.9287 38.0376 26.2683 50.1979C24.2645 59.3279 23.0875 68.9346 28.5737 77.4809C32.3867 83.4151 39.1471 88.4008 43.8259 94.087C60.1044 113.865 48.5971 138.249 30.9617 157.559C22.6936 166.616 13.088 175.255 6.70206 184.9C0.316149 194.546 -2.63606 205.588 2.95222 215.428C8.487 225.156 21.6819 232.496 35.9761 237.647C65.0069 248.11 99.2029 251.101 132.572 252.799C206.416 256.554 280.649 254.925 354.688 253.285C382.089 252.682 409.608 252.074 436.562 248.908C451.532 247.161 466.984 244.384 477.854 237.686C491.647 229.184 495.066 214.786 485.82 204.124C470.315 186.238 427.457 181.792 416.606 162.598C410.644 152.033 416.767 140.267 425.439 130.466C444.037 109.448 475.208 91.008 476.847 66.9792C477.975 50.48 462.991 33.9517 439.82 26.1447C415.536 17.9633 381.856 18.9896 363.948 32.5362C345.491 46.5012 313.07 51.8712 285.275 51.1707Z" fill="#6C63FF"/>
<g opacity="0.8">
<path opacity="0.8" d="M456.58 86.9611C456.58 86.9611 451.094 84.7333 433.644 92.7396C416.193 100.746 414.014 99.7294 409.496 98.5036C404.978 97.2779 402.458 96.9909 397.614 90.3076C397.614 90.3076 394.209 71.7898 390.893 68.9054C387.576 66.0209 373.539 70.5446 373.539 70.5446C373.539 70.5446 356.701 74.4164 353.472 51.9003C353.472 51.9003 355.748 34.9342 352.645 29.7247C352.645 29.7247 358.909 32.4243 369.24 28.0661C379.57 23.7078 387.838 32.7648 387.838 32.7648C387.838 32.7648 390.445 39.5114 390.173 43.5292C389.9 47.5469 391.549 49.0646 396.495 47.1189C396.495 47.1189 398.927 43.6751 395.489 37.9841C392.05 32.293 389.613 28.0515 390.572 23.63C391.53 19.2085 394.278 13.0845 403.115 10.0104C411.952 6.93626 423.96 6.36229 429.724 3.9886C435.487 1.6149 436.878 0.0243225 436.878 0.0243225C436.878 0.0243225 433.332 3.58001 441.688 18.6394C450.044 33.6987 444.718 40.241 444.718 40.241C444.718 40.241 440.273 50.8351 420.653 49.9693C420.653 49.9693 401.748 50.66 412.054 58.6761C412.054 58.6761 418.654 57.3336 428.527 54.1962C438.4 51.0588 445.516 64.0072 447.286 73.0156C449.056 82.0239 456.58 86.9611 456.58 86.9611Z" fill="#6C63FF"/>
<path opacity="0.8" d="M431.173 11.4259L431.275 11.3967C432.034 14.2714 423.586 25.8188 416.363 35.0023L416.281 34.9391C426.465 21.9859 431.776 13.6342 431.173 11.4259Z" fill="#444053"/>
<path opacity="0.8" d="M416.426 34.7494L416.47 34.8661C410.702 42.2012 403.445 50.9567 397.638 57.4406C397.084 58.0583 396.534 58.7053 396.009 59.3862L395.839 59.2549C396.374 58.5885 396.923 57.9367 397.478 57.3093C403.285 50.8156 410.663 42.0796 416.426 34.7494Z" fill="#444053"/>
<path opacity="0.8" d="M395.98 59.0604L396.097 59.2549C385.528 72.4513 384.828 92.9391 384.803 93.119L382.576 90.5702C382.6 90.3659 385.338 72.3443 395.98 59.0604Z" fill="#444053"/>
<path opacity="0.8" d="M444.329 79.8059C444.329 79.8059 431.868 73.3269 422.156 75.6519C412.443 77.977 390.581 67.4315 390.581 67.4315C390.581 67.4315 381.297 63.6618 379.429 59.3619C379.429 59.3619 373.063 52.6251 372.698 49.1472C372.333 45.6694 366.117 36.8945 362.09 36.5783" stroke="#444053" stroke-miterlimit="10"/>
<path opacity="0.8" d="M442.525 86.0417C442.525 86.0417 436.25 81.8148 436.98 76.8826" stroke="#444053" stroke-miterlimit="10"/>
<path opacity="0.8" d="M432.899 91.5042C432.899 91.5042 423.921 88.2452 423.021 75.4525" stroke="#444053" stroke-miterlimit="10"/>
<path opacity="0.8" d="M418.416 94.8118C418.416 94.8118 409.836 87.6955 412.686 75.2579" stroke="#444053" stroke-miterlimit="10"/>
<path opacity="0.8" d="M401.009 91.3339C401.009 91.3339 395.299 79.3535 400.381 71.5612" stroke="#444053" stroke-miterlimit="10"/>
<path opacity="0.8" d="M444.475 71.9065C444.475 71.9065 437.982 73.9689 439.378 77.3835" stroke="#444053" stroke-miterlimit="10"/>
<path opacity="0.8" d="M436.64 60.1256C436.64 60.1256 427.953 62.8787 427.749 75.1704" stroke="#444053" stroke-miterlimit="10"/>
<path opacity="0.8" d="M424.529 57.2898C424.529 57.2898 416.626 67.0473 417.185 75.9146" stroke="#444053" stroke-miterlimit="10"/>
<path opacity="0.8" d="M410.687 61.1179C410.687 61.1179 402.833 68.6233 403.835 72.7918" stroke="#444053" stroke-miterlimit="10"/>
<path opacity="0.8" d="M405.95 58.4669C405.95 58.4669 398.587 59.7851 397.561 57.3676" stroke="#444053" stroke-miterlimit="10"/>
<path opacity="0.8" d="M396.383 49.5753C396.383 49.5753 400.104 54.5026 401.062 53.3985" stroke="#444053" stroke-miterlimit="10"/>
<path opacity="0.8" d="M433.259 46.4574C433.259 46.4574 414.7 47.8048 410.503 42.211" stroke="#444053" stroke-miterlimit="10"/>
<path opacity="0.8" d="M392.478 24.7487C392.478 24.7487 401.189 43.4416 407.511 45.825" stroke="#444053" stroke-miterlimit="10"/>
<path opacity="0.8" d="M401.622 15.8425C401.622 15.8425 406.972 33.0372 413.596 38.4072" stroke="#444053" stroke-miterlimit="10"/>
<path opacity="0.8" d="M441.07 32.2687C441.07 32.2687 426.966 38.3246 418.484 32.1957" stroke="#444053" stroke-width="0.75" stroke-miterlimit="10"/>
<path opacity="0.8" d="M414.189 12.1749C414.189 12.1749 417.414 24.8217 421.757 27.8715" stroke="#444053" stroke-width="0.75" stroke-miterlimit="10"/>
<path opacity="0.8" d="M438.94 18.0946C438.94 18.0946 431.008 21.0958 428.046 18.795" stroke="#444053" stroke-width="0.75" stroke-miterlimit="10"/>
<path opacity="0.8" d="M389.589 53.705C389.589 53.705 389.589 64.7222 386.588 65.5053" stroke="#444053" stroke-miterlimit="10"/>
<path opacity="0.8" d="M365.067 67.9812C365.067 67.9812 376.983 69.0026 382.474 62.8544" stroke="#444053" stroke-miterlimit="10"/>
<path opacity="0.8" d="M386.515 40.6885C386.515 40.6885 383.636 51.876 375.684 54.8723" stroke="#444053" stroke-miterlimit="10"/>
<path opacity="0.8" d="M357.922 56.21C357.922 56.21 366.356 59.1285 373.607 51.6766" stroke="#444053" stroke-miterlimit="10"/>
<path opacity="0.8" d="M377.143 31.0818C377.143 31.0818 376.345 40.5718 371.185 45.0127" stroke="#444053" stroke-miterlimit="10"/>
<path opacity="0.8" d="M358.243 41.7489C358.243 41.7489 365.242 41.7927 366.881 39.5163" stroke="#444053" stroke-miterlimit="10"/>
</g>
<path opacity="0.1" d="M127.849 365C186.406 365 233.876 361.624 233.876 357.461C233.876 353.297 186.406 349.921 127.849 349.921C69.2927 349.921 21.823 353.297 21.823 357.461C21.823 361.624 69.2927 365 127.849 365Z" fill="#6C63FF"/>
<path d="M189.272 316.412C190.731 313.79 192.477 311.319 193.887 308.664C195.176 306.231 196.183 303.653 197.345 301.153C199.335 296.873 201.786 292.826 204.018 288.662C205.477 285.933 206.888 282.961 206.606 279.878C206.338 276.959 204.626 274.43 203.965 271.609C201.27 260.027 194.787 249.394 190.833 238.192C189.821 235.351 188.839 232.491 187.574 229.748C185.143 224.47 181.738 219.728 178.334 215.024C177.107 213.227 175.741 211.529 174.248 209.946C173.027 208.725 171.656 207.65 170.547 206.327C168.261 203.603 167.191 199.683 164.331 197.572C164.283 197.698 164.229 197.82 164.176 197.946C162.128 192.717 155.261 189.268 151.277 184.934C148.959 182.288 146.825 179.484 144.892 176.544L136.22 164.009C134.727 161.849 133.204 159.631 132.601 157.058C131.862 153.955 132.548 150.647 131.818 147.544C131.352 145.676 130.443 143.947 129.168 142.505C129.25 142.48 129.338 142.446 129.425 142.427C131.079 141.984 132.83 141.906 134.469 141.512C138.044 140.661 141.151 138.375 144.712 137.46C146.531 136.974 148.471 136.877 150.12 136.001C150.922 135.521 151.554 134.803 151.929 133.947C152.304 133.091 152.403 132.139 152.211 131.225C151.059 125.12 154.278 118.933 153.734 112.741C153.588 111.029 153.15 109.36 152.868 107.663C152.211 103.723 152.333 99.6856 152.566 95.6873C153.676 93.8855 155.008 92.2301 156.53 90.7599C158.719 88.6489 161.331 86.8686 162.853 84.2274C164.181 81.8877 164.502 79.0617 164.166 76.3864C163.928 74.4407 163.266 72.3929 161.734 71.211C160.202 70.029 158.004 69.9414 156.151 70.5592C155.893 70.6419 155.64 70.744 155.392 70.851C154.618 70.4633 153.772 70.2375 152.908 70.1873C152.043 70.1372 151.177 70.2637 150.363 70.5592C148.515 71.172 146.929 72.3929 145.441 73.6625C144.559 74.3543 143.785 75.174 143.146 76.0946C142.207 77.5538 141.934 79.3535 141.579 81.0706C140.824 84.3852 139.724 87.6115 138.296 90.6967C138.034 91.2415 137.324 92.2192 136.75 93.1531L135.709 92.9391C135.257 97.273 131.628 100.454 129.42 104.2C128.346 106.019 127.592 108.008 126.624 109.891C125.519 111.94 124.287 113.917 122.932 115.81C121.619 117.756 120.304 119.684 118.988 121.594C117.338 124.102 115.552 126.518 113.638 128.832C111.853 128.686 110.068 128.554 108.288 128.525C105.3 128.482 102.316 128.748 99.3828 129.318C99.2118 128.286 99.1063 127.245 99.0667 126.2C99.0667 126.137 99.0667 126.074 99.0667 126.01C99.0667 125.757 99.0959 125.456 99.1299 125.13C101.658 123.437 103.715 121.131 105.11 118.427C106.504 115.722 107.191 112.709 107.105 109.667C107.019 106.626 106.163 103.656 104.618 101.035C103.073 98.4143 100.888 96.2279 98.2691 94.6804C98.3657 94.1336 98.4274 93.5812 98.4539 93.0266C98.4539 92.7007 98.4539 92.3699 98.4539 92.0538C98.4539 91.8884 98.4539 91.723 98.4198 91.5674C98.3897 91.2393 98.3344 90.9141 98.2545 90.5945C98.2156 90.4389 98.1718 90.2832 98.1183 90.1081C98.0148 89.8029 97.8795 89.5095 97.7146 89.2326C97.7044 89.2156 97.6931 89.1993 97.6806 89.1839C97.6173 89.0818 97.5541 88.9796 97.4812 88.8824C97.4082 88.7851 97.4179 88.8045 97.3887 88.7656C97.3375 88.6945 97.2823 88.6263 97.2234 88.5613L97.1018 88.4349C97.0483 88.3765 96.9948 88.3181 96.9364 88.2646L96.8003 88.143L96.63 87.9922L96.4744 87.8755L96.2993 87.7442L96.1291 87.6323L95.954 87.5204C95.8956 87.4815 95.8324 87.4474 95.7692 87.4134L95.5892 87.3113L95.3947 87.214L95.2147 87.1264L95.0007 87.034L94.8256 86.9562L94.5922 86.8686L94.4268 86.8054L94.1739 86.7178L94.0231 86.6692L93.7459 86.5816L93.6146 86.5427L93.313 86.46L93.1963 86.426L92.8802 86.3482L92.7878 86.3238L92.4376 86.246H92.3792L91.8637 86.1341C89.7334 85.6964 87.5902 85.3186 85.434 85.0008C83.6685 84.7381 81.8593 84.5144 80.1181 84.9084C77.7155 85.4434 75.7117 87.068 73.4647 88.0749C70.8092 89.2715 67.8618 89.5877 65.0312 90.2443C62.2006 90.901 59.2873 92.0246 57.5121 94.3448C56.16 96.1153 55.6201 98.3674 55.2165 100.561C51.8508 118.87 55.4791 137.65 56.1649 156.26C56.4324 163.503 56.1065 171.247 52.0016 177.176L63.9563 176.86C64.5303 176.86 65.109 176.826 65.6927 176.792C66.2763 176.758 66.8599 176.714 67.4338 176.646C68.95 176.504 70.4229 176.062 71.7673 175.347C72.3899 174.993 72.9582 174.55 73.455 174.034C75.0794 172.361 75.9451 170.021 76.7379 167.784C77.0054 167.03 77.2729 166.266 77.5112 165.497C77.6085 165.176 77.7009 164.855 77.7836 164.525L77.8225 164.369L77.9587 164.432C78.445 165.347 78.9946 166.242 79.5782 167.107C81.6647 170.182 84.3105 172.808 86.9369 175.42C92.1555 180.601 97.4909 185.873 104.032 189.2C106.241 190.314 108.629 191.253 110.311 193.092C111.138 193.982 111.853 195.125 113.025 195.431C113.755 195.621 114.557 195.431 115.253 195.743C116.274 196.171 116.649 197.401 117.12 198.413C117.592 199.425 118.657 200.456 119.669 199.994C119.479 200.933 119.558 201.907 119.895 202.804C120.232 203.701 120.814 204.485 121.575 205.067C122.065 205.339 122.488 205.718 122.811 206.176C122.967 206.594 123.052 207.034 123.064 207.48C123.272 208.722 123.927 209.845 124.907 210.637C123.959 212.208 124.717 214.46 124.742 216.42C124.742 218.064 124.202 219.65 123.832 221.25C122.757 225.944 123.346 230.857 124.221 235.59C124.708 238.202 125.325 240.906 127.028 242.934C127.582 243.591 128.243 244.16 128.827 244.797C129.941 246.053 130.867 247.464 131.575 248.985C133.051 251.999 134.057 255.221 134.556 258.539C134.791 260.204 135.266 261.826 135.967 263.354C137.032 265.679 136.059 268.539 137.013 270.913C137.445 271.978 138.243 272.888 138.501 274.002C138.866 275.621 138.014 277.241 137.786 278.89C137.231 282.752 140.018 286.337 140.271 290.228C140.313 290.457 140.264 290.692 140.135 290.885C139.945 291.099 139.619 291.094 139.362 291.216C138.875 291.449 138.744 292.106 138.588 292.651C138.433 293.196 137.995 293.813 137.455 293.648C129.464 297.924 121.191 301.873 113.2 306.149L109.553 308.094L90.0447 318.518C89.8078 318.636 89.6088 318.818 89.4704 319.043C89.3319 319.268 89.2596 319.528 89.2617 319.793C89.2617 320.026 89.2908 320.279 89.3103 320.498C87.9436 320.838 86.6305 321.247 85.6966 321.417C85.3124 321.49 84.9282 321.563 84.5488 321.646C84.6411 321.498 84.7008 321.332 84.7239 321.159C84.7255 320.92 84.6385 320.688 84.4797 320.508C84.3208 320.329 84.1012 320.214 83.8631 320.187C83.3866 320.139 82.9056 320.203 82.4575 320.371C81.3424 320.676 80.2035 320.886 79.053 320.999C77.6863 321.13 76.2953 321.125 74.9724 321.485C73.6495 321.845 72.3461 322.648 71.8111 323.917C71.5434 324.652 71.4244 325.432 71.4609 326.213C71.4313 329.22 71.7876 332.218 72.5212 335.134C72.5328 335.25 72.5708 335.361 72.6324 335.46C72.6939 335.559 72.7774 335.642 72.8762 335.703C73.0464 335.771 73.2507 335.703 73.4209 335.781C73.5708 335.872 73.683 336.013 73.7371 336.18C74.5541 338.038 74.7438 340.11 74.9627 342.134C75.2869 345.133 75.6971 348.125 76.1932 351.108C76.485 352.849 76.8449 354.669 77.9781 356.011C79.2232 357.47 81.1929 358.117 83.0946 358.375C87.1071 358.915 91.1585 358.103 95.1174 357.271C95.8567 357.115 96.6495 356.925 97.1456 356.352C97.5083 355.893 97.6823 355.314 97.6319 354.732C97.5395 352.733 95.7205 351.327 94.0669 350.203L91.8102 348.642C91.6177 348.54 91.4651 348.376 91.3769 348.176C91.2887 347.977 91.27 347.754 91.3238 347.543L91.4697 344.59H91.032C91.5184 342.508 92.3014 340.509 93.8335 339.079C94.8889 338.106 96.2653 337.425 97.3693 336.54C98.7858 337.629 100.502 338.259 102.286 338.344C105.205 334.414 109.314 331.739 113.424 329.103C116.762 326.994 120.212 325.068 123.759 323.334C126.632 321.913 129.55 320.582 132.514 319.34C136.696 317.579 140.957 316.008 145.222 314.476C148.067 313.455 150.937 312.448 153.558 310.94C160.368 307.005 165.178 299.149 164.258 291.284C163.101 281.361 165.576 271.02 165.411 261.029C165.362 258.111 165.255 255.192 164.37 252.395C164.576 252.541 164.77 252.704 164.949 252.882C166.719 254.535 167.147 257.162 168.84 259.049C170.158 260.533 172.162 261.481 172.959 263.291C173.567 264.677 173.48 266.55 174.749 267.348C175.109 267.576 175.537 267.673 175.897 267.897C176.328 268.204 176.69 268.597 176.962 269.05C178.309 270.971 179.705 273.029 179.851 275.373C179.914 276.302 179.827 277.377 180.508 278.005C180.702 278.185 180.95 278.316 181.052 278.559C181.266 279.046 180.702 279.561 180.605 280.101C180.464 280.85 181.203 281.42 181.66 282.047C182.042 282.57 182.247 283.201 182.247 283.849C182.247 284.497 182.042 285.128 181.66 285.651C177.672 290.832 176.952 297.812 173.465 303.352C172.259 305.264 170.917 307.073 169.749 309.009C166.16 314.953 164.346 321.782 162.585 328.509C163.337 329.819 164.357 330.956 165.576 331.846C164.917 334.111 163.782 336.209 162.245 337.999C161.853 338.437 161.486 338.896 161.146 339.376C160.86 339.015 160.487 338.733 160.061 338.559C159.422 341.351 159.095 344.206 159.088 347.071C159.088 348.958 159.346 351.113 160.878 352.202C161.49 352.588 162.162 352.866 162.867 353.024L166.204 353.997C166.791 354.222 167.428 354.285 168.047 354.177C168.441 354.065 168.791 353.822 169.195 353.744C169.634 353.699 170.077 353.757 170.489 353.915L173.373 354.756C174.348 355.016 175.301 355.352 176.223 355.763C177.045 356.157 177.804 356.668 178.611 357.105C179.954 357.784 181.347 358.356 182.779 358.818L187.75 360.53C189.134 361.079 190.582 361.455 192.059 361.649C193.08 361.736 194.116 361.649 195.123 361.824C195.891 361.955 196.635 362.232 197.409 362.31C198.692 362.348 199.954 361.973 201.008 361.24C201.42 361.007 201.775 360.687 202.049 360.301C202.778 359.163 202.151 357.66 201.441 356.512C200.123 354.382 198.474 352.387 196.3 351.161C195.419 350.675 194.466 350.315 193.557 349.868C190.969 348.603 189.019 346.492 186.573 345.047C186.261 344.825 185.881 344.718 185.499 344.743C185.117 344.769 184.756 344.926 184.476 345.188C182.443 343.87 180.245 342.581 179.126 340.436C178.628 339.401 178.3 338.292 178.154 337.153C179.297 337.425 180.449 337.639 181.612 337.829C183.504 330.494 185.571 323.027 189.272 316.412ZM142.547 108.962C142.45 109.511 142.343 110.056 142.226 110.601C141.254 115.168 139.863 120.285 136.682 123.685C135.636 124.682 134.42 125.484 133.092 126.054L132.737 126.229C135.028 120.11 138.676 114.439 142.547 108.962Z" fill="url(#paint0_linear)"/>
<path d="M147.255 81.8683C147.615 80.1707 147.888 78.3904 148.826 76.9263C149.468 76.0058 150.243 75.1861 151.127 74.4943C152.615 73.2345 154.205 72.0233 156.058 71.4104C157.911 70.7975 160.09 70.8802 161.647 72.0573C163.203 73.2345 163.86 75.2628 164.103 77.1987C164.433 79.8594 164.103 82.6612 162.785 84.9813C161.277 87.6128 158.66 89.3591 156.462 91.4701C154.869 92.994 153.484 94.721 152.343 96.6066C151.823 97.5894 151.193 98.5098 150.465 99.35C150.096 99.768 149.634 100.094 149.116 100.301C148.598 100.508 148.039 100.59 147.484 100.542C146.545 100.391 145.782 99.7391 145.052 99.1165C144.152 98.3285 141.73 96.9228 141.648 95.6727C141.589 94.661 143.481 92.3651 143.943 91.4166C145.381 88.3595 146.491 85.1589 147.255 81.8683Z" fill="#FBBEBE"/>
<path opacity="0.1" d="M147.255 81.8683C147.615 80.1707 147.888 78.3904 148.826 76.9263C149.468 76.0058 150.243 75.1861 151.127 74.4943C152.615 73.2345 154.205 72.0233 156.058 71.4104C157.911 70.7975 160.09 70.8802 161.647 72.0573C163.203 73.2345 163.86 75.2628 164.103 77.1987C164.433 79.8594 164.103 82.6612 162.785 84.9813C161.277 87.6128 158.66 89.3591 156.462 91.4701C154.869 92.994 153.484 94.721 152.343 96.6066C151.823 97.5894 151.193 98.5098 150.465 99.35C150.096 99.768 149.634 100.094 149.116 100.301C148.598 100.508 148.039 100.59 147.484 100.542C146.545 100.391 145.782 99.7391 145.052 99.1165C144.152 98.3285 141.73 96.9228 141.648 95.6727C141.589 94.661 143.481 92.3651 143.943 91.4166C145.381 88.3595 146.491 85.1589 147.255 81.8683Z" fill="black"/>
<path d="M96.1874 130.485C100.084 129.449 104.106 128.958 108.137 129.026C114.864 129.123 121.789 130.753 128.195 128.69C129.848 128.117 131.456 127.419 133.005 126.604C134.294 125.962 135.607 125.3 136.594 124.25C139.78 120.874 141.151 115.791 142.148 111.253C143.145 106.714 143.403 102.054 143.661 97.4189C145.32 98.1923 147.066 98.956 148.904 98.8003C150.742 98.6447 152.576 97.2438 152.566 95.3954C152.294 99.6905 152.08 104.039 152.805 108.281C153.087 109.964 153.524 111.622 153.675 113.325C154.22 119.473 150.995 125.616 152.148 131.682C152.338 132.592 152.239 133.539 151.864 134.389C151.489 135.24 150.857 135.951 150.057 136.424C148.403 137.315 146.458 137.426 144.639 137.884C141.074 138.793 137.961 141.06 134.381 141.906C132.713 142.3 130.977 142.393 129.333 142.816C126.969 143.439 124.824 144.791 122.417 145.219C120.612 145.54 118.755 145.321 116.931 145.477C115.345 145.608 113.789 146.026 112.198 146.065C108.308 146.162 104.626 143.959 102.038 141.036C99.4509 138.112 97.8119 134.026 96.1874 130.485Z" fill="#6C63FF"/>
<path opacity="0.1" d="M96.1874 130.485C100.084 129.449 104.106 128.958 108.137 129.026C114.864 129.123 121.789 130.753 128.195 128.69C129.848 128.117 131.456 127.419 133.005 126.604C134.294 125.962 135.607 125.3 136.594 124.25C139.78 120.874 141.151 115.791 142.148 111.253C143.145 106.714 143.403 102.054 143.661 97.4189C145.32 98.1923 147.066 98.956 148.904 98.8003C150.742 98.6447 152.576 97.2438 152.566 95.3954C152.294 99.6905 152.08 104.039 152.805 108.281C153.087 109.964 153.524 111.622 153.675 113.325C154.22 119.473 150.995 125.616 152.148 131.682C152.338 132.592 152.239 133.539 151.864 134.389C151.489 135.24 150.857 135.951 150.057 136.424C148.403 137.315 146.458 137.426 144.639 137.884C141.074 138.793 137.961 141.06 134.381 141.906C132.713 142.3 130.977 142.393 129.333 142.816C126.969 143.439 124.824 144.791 122.417 145.219C120.612 145.54 118.755 145.321 116.931 145.477C115.345 145.608 113.789 146.026 112.198 146.065C108.308 146.162 104.626 143.959 102.038 141.036C99.4509 138.112 97.8119 134.026 96.1874 130.485Z" fill="black"/>
<path d="M271.097 136.463C277.719 136.463 284.193 138.427 289.699 142.107C295.205 145.786 299.496 151.016 302.03 157.135C304.564 163.254 305.227 169.987 303.934 176.482C302.642 182.978 299.453 188.944 294.77 193.627C290.087 198.31 284.121 201.499 277.626 202.79C271.131 204.081 264.399 203.418 258.281 200.883C252.163 198.347 246.935 194.055 243.256 188.548C239.578 183.04 237.615 176.566 237.616 169.943C237.617 161.063 241.145 152.548 247.424 146.269C253.703 139.991 262.218 136.463 271.097 136.463ZM271.097 128.194C262.84 128.194 254.768 130.643 247.902 135.231C241.036 139.82 235.685 146.341 232.525 153.971C229.366 161.601 228.539 169.996 230.151 178.096C231.762 186.195 235.739 193.635 241.578 199.474C247.417 205.313 254.856 209.29 262.955 210.9C271.054 212.511 279.449 211.683 287.077 208.522C294.706 205.361 301.226 200.009 305.813 193.142C310.4 186.275 312.847 178.202 312.846 169.943C312.833 158.874 308.431 148.262 300.604 140.435C292.777 132.608 282.165 128.206 271.097 128.194Z" fill="#3F3D56"/>
<path d="M274.701 118.427H264.915V128.729H274.701V118.427Z" fill="#3F3D56"/>
<path d="M300.543 127.647L292.155 122.606L286.85 131.437L295.237 136.477L300.543 127.647Z" fill="#3F3D56"/>
<path d="M317.745 148.036L313 139.476L303.991 144.471L308.735 153.031L317.745 148.036Z" fill="#3F3D56"/>
<path d="M312.872 200.129L318.058 191.83L309.322 186.371L304.136 194.67L312.872 200.129Z" fill="#3F3D56"/>
<path d="M233.462 153.027L238.206 144.468L229.197 139.473L224.453 148.033L233.462 153.027Z" fill="#3F3D56"/>
<path d="M238.062 194.666L232.877 186.367L224.141 191.826L229.326 200.126L238.062 194.666Z" fill="#3F3D56"/>
<path d="M246.955 136.477L255.343 131.436L250.037 122.605L241.649 127.646L246.955 136.477Z" fill="#3F3D56"/>
<path d="M274.701 211.157H264.915V221.459H274.701V211.157Z" fill="#3F3D56"/>
<path d="M295.239 203.412L286.851 208.452L292.156 217.283L300.544 212.242L295.239 203.412Z" fill="#3F3D56"/>
<path d="M241.651 212.243L250.038 217.284L255.344 208.453L246.956 203.412L241.651 212.243Z" fill="#3F3D56"/>
<path d="M230.408 165.823H218.561V174.579H230.408V165.823Z" fill="#3F3D56"/>
<path d="M311.786 174.579H323.634V165.823H311.786V174.579Z" fill="#3F3D56"/>
<path d="M348.876 76.1918C355.498 76.1918 361.971 78.1558 367.477 81.8354C372.983 85.5149 377.275 90.7448 379.809 96.8636C382.343 102.982 383.006 109.715 381.713 116.211C380.421 122.706 377.232 128.673 372.549 133.356C367.866 138.038 361.9 141.227 355.405 142.518C348.91 143.81 342.178 143.146 336.06 140.611C329.942 138.076 324.713 133.783 321.035 128.276C317.357 122.769 315.394 116.295 315.395 109.672C315.396 100.792 318.924 92.2761 325.203 85.9975C331.482 79.719 339.997 76.1918 348.876 76.1918ZM348.876 67.9228C340.618 67.9228 332.547 70.3717 325.681 74.9599C318.815 79.5481 313.464 86.0694 310.304 93.6992C307.144 101.329 306.318 109.725 307.929 117.824C309.541 125.924 313.517 133.363 319.356 139.203C325.196 145.042 332.635 149.018 340.734 150.629C348.833 152.239 357.227 151.412 364.856 148.251C372.485 145.09 379.005 139.737 383.591 132.87C388.178 126.003 390.626 117.93 390.625 109.672C390.612 98.6023 386.209 87.99 378.382 80.1633C370.556 72.3365 359.944 67.9344 348.876 67.9228Z" fill="#3F3D56"/>
<path d="M352.48 58.1605H342.694V68.4627H352.48V58.1605Z" fill="#3F3D56"/>
<path d="M378.325 67.3718L369.937 62.3313L364.632 71.162L373.019 76.2025L378.325 67.3718Z" fill="#3F3D56"/>
<path d="M395.526 87.7626L390.782 79.2031L381.772 84.1977L386.516 92.7573L395.526 87.7626Z" fill="#3F3D56"/>
<path d="M390.649 139.859L395.835 131.559L387.099 126.1L381.914 134.4L390.649 139.859Z" fill="#3F3D56"/>
<path d="M311.238 92.7616L315.982 84.202L306.972 79.2074L302.228 87.767L311.238 92.7616Z" fill="#3F3D56"/>
<path d="M315.839 134.398L310.654 126.099L301.918 131.558L307.103 139.858L315.839 134.398Z" fill="#3F3D56"/>
<path d="M324.733 76.2034L333.121 71.1629L327.816 62.3322L319.428 67.3726L324.733 76.2034Z" fill="#3F3D56"/>
<path d="M352.48 150.886H342.694V161.188H352.48V150.886Z" fill="#3F3D56"/>
<path d="M373.018 143.142L364.63 148.182L369.935 157.013L378.323 151.973L373.018 143.142Z" fill="#3F3D56"/>
<path d="M319.426 151.97L327.814 157.01L333.119 148.18L324.732 143.139L319.426 151.97Z" fill="#3F3D56"/>
<path d="M308.182 105.552H296.334V114.307H308.182V105.552Z" fill="#3F3D56"/>
<path d="M389.57 114.307H401.417V105.552H389.57V114.307Z" fill="#3F3D56"/>
<path d="M193.299 73.6139C193.693 73.6139 194.087 73.6139 194.481 73.6139C203.256 73.9132 211.563 77.6482 217.611 84.0143C223.66 90.3804 226.965 98.868 226.816 107.648C226.667 116.429 223.074 124.799 216.813 130.956C210.552 137.113 202.123 140.563 193.343 140.564C192.949 140.564 192.555 140.564 192.156 140.564C183.38 140.265 175.073 136.529 169.025 130.162C162.976 123.796 159.671 115.308 159.821 106.527C159.971 97.7462 163.564 89.3759 169.826 83.2194C176.088 77.063 184.518 73.6134 193.299 73.6139ZM193.299 65.3448C182.349 65.3435 171.838 69.6443 164.028 77.3206C156.219 84.997 151.738 95.4342 151.551 106.383C151.363 117.333 155.484 127.917 163.026 135.857C170.567 143.796 180.926 148.454 191.869 148.828C192.355 148.828 192.842 148.852 193.328 148.852C204.277 148.852 214.788 144.551 222.596 136.874C230.404 129.197 234.885 118.76 235.071 107.811C235.258 96.8625 231.137 86.2784 223.596 78.3397C216.054 70.4009 205.696 65.7428 194.753 65.3691C194.267 65.3691 193.78 65.3448 193.294 65.3448H193.299Z" fill="#3F3D56"/>
<path d="M198.703 55.7467L188.924 55.4069L188.566 65.7029L198.346 66.0427L198.703 55.7467Z" fill="#3F3D56"/>
<path d="M224.206 65.8507L215.998 60.5219L210.389 69.1631L218.597 74.4918L224.206 65.8507Z" fill="#3F3D56"/>
<path d="M240.692 86.8245L236.248 78.1053L227.071 82.784L231.515 91.5032L240.692 86.8245Z" fill="#3F3D56"/>
<path d="M234.021 138.704L239.491 130.589L230.95 124.83L225.48 132.944L234.021 138.704Z" fill="#3F3D56"/>
<path d="M156.286 88.8822L161.324 80.4926L152.494 75.1881L147.455 83.5777L156.286 88.8822Z" fill="#3F3D56"/>
<path d="M158.755 131.463L153.862 122.949L144.9 128.1L149.793 136.614L158.755 131.463Z" fill="#3F3D56"/>
<path d="M170.357 72.8027L178.915 68.0565L173.919 59.0469L165.361 63.793L170.357 72.8027Z" fill="#3F3D56"/>
<path d="M195.488 148.411L185.708 148.071L185.35 158.367L195.13 158.707L195.488 148.411Z" fill="#3F3D56"/>
<path d="M216.287 141.391L207.729 146.138L212.725 155.147L221.283 150.401L216.287 141.391Z" fill="#3F3D56"/>
<path d="M162.43 148.345L170.638 153.674L176.247 145.033L168.039 139.704L162.43 148.345Z" fill="#3F3D56"/>
<path d="M152.795 101.57L140.954 101.159L140.65 109.909L152.491 110.321L152.795 101.57Z" fill="#3F3D56"/>
<path d="M233.831 113.133L245.671 113.545L245.975 104.795L234.135 104.383L233.831 113.133Z" fill="#3F3D56"/>
<path d="M85.4875 320.6C84.2826 320.747 83.1143 321.111 82.0392 321.675C80.5802 322.565 79.6804 324.136 79.0384 325.722C77.4285 329.701 77.0929 334.069 77.0249 338.369C76.9665 341.832 77.0832 345.378 78.3234 348.608C78.6636 349.63 79.2537 350.552 80.0403 351.288C80.7322 351.832 81.5335 352.22 82.3894 352.426C84.2376 352.913 86.3824 352.913 87.895 351.745C89.5778 350.427 90.0009 348.107 90.356 346.001C90.8424 343.16 91.5184 340.164 93.6292 338.184C95.1953 336.725 97.4374 335.995 98.5755 334.186C99.9324 332.036 99.2175 329.229 98.3518 326.836C97.5979 324.764 96.4939 320.556 94.3247 319.496C92.1555 318.436 87.7442 320.192 85.4875 320.6Z" fill="#FBBEBE"/>
<path d="M165.479 330.79C164.823 333.11 163.661 335.255 162.075 337.07C161.102 338.179 159.91 339.526 160.421 340.903C160.629 341.369 160.938 341.783 161.326 342.114C168.456 349.094 178.431 352.489 188.328 353.725C188.488 353.768 188.656 353.768 188.815 353.725C189.107 353.594 189.175 353.238 189.214 352.913C189.372 351.881 189.372 350.831 189.214 349.8C188.727 347.367 186.612 345.68 184.54 344.347C182.468 343.014 180.201 341.72 179.044 339.546C177.585 336.841 178.212 333.32 176.495 330.79C175.104 328.733 172.522 327.872 170.07 327.468C169.219 327.337 167.41 326.403 166.666 326.836C165.907 327.274 165.737 329.944 165.479 330.79Z" fill="#FBBEBE"/>
<path d="M84.5148 320.347C84.5164 320.108 84.4294 319.876 84.2705 319.696C84.1117 319.517 83.8921 319.402 83.654 319.374C83.1778 319.326 82.6968 319.387 82.2484 319.554C81.1331 319.857 79.9942 320.066 78.8438 320.177C77.4772 320.308 76.0813 320.303 74.7536 320.663C73.4258 321.023 72.1272 321.816 71.5874 323.095C71.3248 323.826 71.2059 324.601 71.2372 325.377C71.2097 328.363 71.566 331.339 72.2974 334.234C72.3103 334.35 72.3494 334.462 72.4118 334.56C72.4741 334.659 72.5581 334.742 72.6573 334.803C72.8276 334.872 73.0318 334.803 73.2021 334.881C73.3516 334.97 73.4639 335.11 73.5182 335.275C74.3402 337.124 74.5298 339.167 74.7487 341.19C75.0729 344.17 75.4831 347.141 75.9792 350.101C76.271 351.828 76.6309 353.642 77.769 354.965C79.0141 356.425 80.9887 357.052 82.8904 357.31C86.9077 357.845 90.964 357.037 94.9327 356.211C95.6893 356.135 96.401 355.816 96.9608 355.301C97.3233 354.847 97.4975 354.27 97.4471 353.691C97.3547 351.706 95.5309 350.286 93.8772 349.196L91.6011 347.664C91.4423 347.576 91.3058 347.453 91.2023 347.304C91.0944 347.077 91.0555 346.824 91.0904 346.575L91.2363 343.656C89.7244 343.68 88.2473 344.114 86.9625 344.912C85.6777 345.709 84.6334 346.84 83.9409 348.185C83.6248 348.812 83.3281 349.547 82.6715 349.79C81.8593 350.096 80.9546 349.41 80.6823 348.588C80.4929 347.74 80.5179 346.857 80.7552 346.02C82.0879 338.88 81.7766 331.54 82.5888 324.321C82.639 323.511 82.8879 322.726 83.3135 322.035C83.7074 321.49 84.4419 321.014 84.5148 320.347Z" fill="#3F3D56"/>
<path d="M183.849 348.034C184.185 348.588 184.705 349.007 185.016 349.581C185.328 350.155 185.323 350.991 184.763 351.317C184.433 351.463 184.066 351.5 183.713 351.424C176.572 350.538 169.868 347.505 164.487 342.727C163.594 341.972 162.802 341.104 162.133 340.144C161.506 339.171 160.975 338.028 159.905 337.63C159.266 340.402 158.94 343.238 158.933 346.083C158.933 347.956 159.191 350.096 160.723 351.181C161.337 351.562 162.011 351.837 162.717 351.993L166.058 352.937C166.647 353.16 167.285 353.222 167.906 353.117C168.3 353.01 168.65 352.762 169.054 352.689C169.494 352.642 169.938 352.699 170.352 352.854L173.237 353.696C174.212 353.944 175.167 354.27 176.092 354.669C176.914 355.058 177.677 355.568 178.48 356.001C179.825 356.676 181.222 357.244 182.657 357.699L187.735 359.46C189.123 360.008 190.574 360.38 192.054 360.569C193.075 360.656 194.111 360.569 195.123 360.744C195.891 360.875 196.635 361.152 197.414 361.23C198.696 361.265 199.956 360.892 201.013 360.165C201.424 359.935 201.781 359.618 202.058 359.236C202.788 358.103 202.16 356.609 201.446 355.466C200.127 353.355 198.479 351.376 196.3 350.169C195.415 349.683 194.461 349.323 193.552 348.88C190.964 347.625 189.004 345.529 186.558 344.094C184.248 342.751 182.76 346.249 183.849 348.034Z" fill="#3F3D56"/>
<path d="M112.534 143.589C109.852 145.432 106.778 146.628 103.556 147.082C101.87 147.292 100.172 147.383 98.4733 147.354C91.3911 147.346 84.3216 146.755 77.3361 145.588C80.1181 142.524 82.9293 139.265 83.9798 135.247C84.5004 133.128 84.6077 130.928 84.2959 128.768C83.8747 125.997 83.214 123.268 82.3213 120.611C85.3008 120.771 88.2883 120.694 91.2557 120.383C92.9483 120.212 97.0921 118.67 98.5511 119.838C99.9178 120.922 98.8867 124.76 98.8624 126.531C98.8624 126.594 98.8624 126.657 98.8624 126.721C98.9389 129.408 99.518 132.058 100.57 134.532C102.71 139.319 107.286 143.249 112.534 143.589Z" fill="#FBBEBE"/>
<path opacity="0.1" d="M98.8819 126.506C96.7503 127.899 94.3454 128.819 91.8287 129.205C89.3121 129.591 86.7419 129.434 84.2911 128.744C83.8698 125.973 83.2091 123.244 82.3165 120.587C85.296 120.747 88.2835 120.67 91.2509 120.358C92.9434 120.188 97.0872 118.646 98.5463 119.813C99.9373 120.898 98.9062 124.736 98.8819 126.506Z" fill="black"/>
<path d="M89.1352 128.579C98.9663 128.579 106.936 120.608 106.936 110.776C106.936 100.944 98.9663 92.9731 89.1352 92.9731C79.3041 92.9731 71.3344 100.944 71.3344 110.776C71.3344 120.608 79.3041 128.579 89.1352 128.579Z" fill="#FBBEBE"/>
<path d="M164.662 200.86C164.672 202.297 164.307 203.712 163.603 204.965C162.9 206.217 161.882 207.265 160.65 208.005C159.274 208.728 157.799 209.244 156.272 209.537C148.131 211.483 139.79 213.083 131.429 212.607C129.62 212.504 127.781 212.29 126.157 211.498C124.533 210.705 123.146 209.221 122.903 207.431C122.892 206.988 122.805 206.551 122.645 206.137C122.323 205.681 121.901 205.305 121.41 205.038C120.658 204.46 120.083 203.683 119.751 202.795C119.42 201.906 119.344 200.943 119.533 200.013C118.516 200.466 117.456 199.444 116.979 198.437C116.503 197.43 116.128 196.214 115.107 195.791C114.411 195.495 113.609 195.67 112.874 195.48C111.702 195.178 110.987 194.021 110.161 193.155C108.473 191.35 106.08 190.416 103.872 189.307C97.3207 186.005 91.9804 180.771 86.7521 175.625C84.1208 173.032 81.4702 170.42 79.3837 167.356C78.7952 166.495 78.2651 165.609 77.7641 164.7C76.1823 161.667 74.8108 158.528 73.6592 155.307C72.9978 153.585 72.3266 151.766 72.599 149.957C72.6233 149.791 72.6573 149.626 72.6962 149.47C73.0352 148.294 73.5821 147.189 74.311 146.206C76.1202 143.546 78.4937 141.026 81.6064 140.209C84.7191 139.392 87.8269 140.379 90.9882 141.05C92.038 141.284 93.1023 141.446 94.1739 141.537C97.5249 141.775 100.842 140.875 104.081 139.98L107.612 139.007C109.382 138.521 110.268 136.381 112.057 136.006C112.857 135.891 113.671 135.932 114.455 136.128C118.088 136.818 121.751 137.709 124.946 139.557C125.657 139.97 126.338 140.433 126.984 140.943C129.26 142.743 131.059 145.141 131.721 147.943C132.45 151.022 131.765 154.31 132.504 157.389C133.107 159.933 134.634 162.151 136.132 164.296L144.823 176.709C146.763 179.63 148.9 182.416 151.219 185.046C155.878 190.12 164.545 193.957 164.662 200.86Z" fill="#6C63FF"/>
<path d="M141.453 81.8683C141.813 80.1707 142.08 78.3904 143.019 76.9263C143.661 76.0058 144.436 75.1861 145.32 74.4943C146.813 73.2345 148.398 72.0233 150.251 71.4104C152.104 70.7975 154.283 70.8802 155.839 72.0573C157.396 73.2345 158.052 75.2628 158.296 77.1987C158.626 79.8594 158.296 82.6612 156.978 84.9813C155.47 87.6128 152.853 89.3591 150.655 91.4701C149.064 92.9954 147.679 94.7223 146.535 96.6066C146.016 97.5894 145.386 98.5098 144.658 99.35C144.289 99.768 143.827 100.094 143.309 100.301C142.791 100.508 142.232 100.59 141.677 100.542C140.743 100.391 139.974 99.7391 139.245 99.1165C138.345 98.3285 135.918 96.9228 135.84 95.6727C135.782 94.661 137.674 92.3651 138.136 91.4166C139.573 88.3588 140.685 85.1584 141.453 81.8683Z" fill="#FBBEBE"/>
<path d="M204.013 288.088C201.776 292.218 199.325 296.241 197.331 300.492C196.168 302.977 195.162 305.536 193.868 307.953C192.458 310.59 190.721 313.041 189.248 315.648C185.537 322.22 183.47 329.633 181.558 336.934C176.212 336.133 171.068 334.317 166.403 331.583C166.087 331.398 165.786 331.204 165.494 330.995C164.247 330.101 163.204 328.952 162.435 327.624C164.2 320.945 166.014 314.155 169.608 308.255C170.78 306.309 172.123 304.534 173.329 302.637C176.826 297.14 177.546 290.204 181.539 285.058C181.92 284.539 182.126 283.912 182.126 283.268C182.126 282.624 181.92 281.997 181.539 281.478C181.077 280.88 180.342 280.31 180.479 279.571C180.581 279.031 181.145 278.545 180.926 278.039C180.824 277.796 180.576 277.664 180.381 277.489C179.7 276.862 179.788 275.792 179.73 274.872C179.579 272.542 178.183 270.495 176.811 268.593C176.538 268.142 176.175 267.751 175.746 267.445C175.386 267.226 174.958 267.129 174.598 266.905C173.324 266.107 173.417 264.249 172.804 262.873C172.006 261.058 169.997 260.134 168.679 258.66C167.001 256.788 166.573 254.175 164.789 252.536C164.609 252.359 164.415 252.197 164.21 252.05C165.095 254.798 165.182 257.731 165.246 260.625C165.416 270.543 162.936 280.811 164.098 290.666C165.012 298.483 160.207 306.285 153.374 310.191C150.747 311.689 147.878 312.691 145.028 313.708C140.753 315.22 136.492 316.782 132.3 318.533C129.336 319.759 126.418 321.08 123.545 322.497C119.994 324.221 116.537 326.134 113.191 328.227C109.076 330.844 104.961 333.505 102.038 337.411C99.2126 337.333 96.6252 335.635 94.8354 333.446C93.0456 331.257 91.9172 328.582 90.891 325.975C89.9815 323.713 89.0866 321.378 89.0185 318.941C89.0307 318.68 89.1166 318.427 89.2663 318.211C89.416 317.996 89.6235 317.828 89.8648 317.725L109.402 307.37L113.054 305.424C121.055 301.178 129.343 297.252 137.343 293.011C137.883 293.171 138.316 292.558 138.476 292.038C138.637 291.517 138.749 290.846 139.255 290.613C139.508 290.491 139.838 290.496 140.028 290.282C140.152 290.09 140.2 289.86 140.164 289.635C139.906 285.744 137.115 282.207 137.674 278.37C137.912 276.735 138.754 275.125 138.389 273.506C138.131 272.392 137.334 271.492 136.901 270.436C135.928 268.077 136.901 265.237 135.85 262.926C135.152 261.407 134.677 259.795 134.44 258.14C133.937 254.844 132.929 251.644 131.453 248.655C130.743 247.143 129.817 245.742 128.705 244.496C128.117 243.863 127.456 243.299 126.896 242.643C125.199 240.629 124.571 237.944 124.09 235.346C123.214 230.643 122.631 225.764 123.701 221.104C124.07 219.514 124.635 217.938 124.61 216.308C124.586 214.153 123.638 211.639 125.136 210.082C125.756 209.525 126.51 209.138 127.324 208.958C130.768 207.932 134.352 207.465 137.917 207.013L154.235 204.877C156.102 204.629 158.014 204.391 159.662 203.462C161.875 202.241 163.344 199.979 164.244 197.625C167.108 199.717 168.178 203.613 170.464 206.312C171.578 207.631 172.955 208.696 174.175 209.907C175.668 211.479 177.036 213.166 178.266 214.951C181.67 219.626 185.075 224.334 187.506 229.578C188.776 232.301 189.758 235.142 190.77 237.968C194.753 249.092 201.246 259.652 203.941 271.151C204.602 273.963 206.319 276.502 206.586 279.377C206.888 282.426 205.477 285.374 204.013 288.088Z" fill="#3F3D56"/>
<path opacity="0.1" d="M118.56 195.699C118.16 196.438 117.953 197.266 117.957 198.107C118.322 196.307 120.797 195.31 120.958 193.529C121.031 192.707 120.88 192.746 120.374 193.179C119.606 193.846 119.27 194.994 118.56 195.699Z" fill="black"/>
<path opacity="0.1" d="M126.103 201.166C125.581 201.608 125.19 202.185 124.975 202.834C124.554 203.749 124.473 204.784 124.746 205.753C125.111 205.583 125.233 205.135 125.345 204.746C125.524 204.14 125.784 203.561 126.118 203.024C126.41 202.538 127.757 201.453 127.752 200.942C127.738 200.159 126.463 200.889 126.103 201.166Z" fill="black"/>
<path opacity="0.1" d="M126.974 140.909C125.83 141.894 124.569 142.734 123.219 143.409C119.693 145.195 115.788 146.138 112.237 147.87C110.486 148.767 108.784 149.76 107.14 150.842L96.5862 157.53C95.7383 158.016 94.9569 158.609 94.2614 159.296C92.992 160.648 92.9969 163.026 91.8296 164.476C90.6624 165.925 88.6489 166.743 86.7083 166.84C84.7644 166.851 82.8335 166.522 81.0033 165.867C79.8948 165.535 78.8067 165.139 77.7447 164.68C76.6339 164.209 75.5826 163.608 74.6125 162.89C72.7303 161.47 71.208 159.403 70.9259 157.053C70.7991 155.441 71.0128 153.82 71.5533 152.296C71.8455 151.305 72.2213 150.34 72.6768 149.412C72.9362 148.884 73.2354 148.377 73.5717 147.894C76.0035 144.46 80.2689 142.85 84.3981 142.057C86.5672 141.634 88.7753 141.376 90.9688 141.006C92.0185 141.24 93.0828 141.403 94.1544 141.493C97.5055 141.731 100.822 140.831 104.062 139.936L107.593 138.964C109.363 138.477 110.248 136.337 112.038 135.962C112.837 135.847 113.652 135.889 114.436 136.084C118.069 136.775 121.731 137.665 124.926 139.513C125.641 139.929 126.326 140.395 126.974 140.909Z" fill="black"/>
<path d="M135.583 93.659C135.13 97.9637 131.497 101.125 129.26 104.846C128.185 106.651 127.431 108.631 126.463 110.499C125.354 112.535 124.12 114.501 122.767 116.384L118.813 122.124C116.488 125.5 114.139 128.904 111.167 131.731C105.988 132.611 101.644 136.459 96.7322 138.326C92.8024 139.82 88.5176 140.024 84.3932 140.827C80.2689 141.629 75.9938 143.259 73.5717 146.663C72.6698 148.006 71.9869 149.484 71.5484 151.041C71.0049 152.563 70.7926 154.183 70.9259 155.793C71.2226 158.138 72.7254 160.2 74.6077 161.63C76.4899 163.06 78.7417 163.907 80.9984 164.607C82.8293 165.26 84.7597 165.589 86.7034 165.58C88.6489 165.483 90.6235 164.734 91.8297 163.216C93.0358 161.699 92.9775 159.388 94.2615 158.036C94.9587 157.349 95.7417 156.756 96.5911 156.27L107.145 149.582C108.788 148.507 110.488 147.521 112.237 146.629C115.788 144.893 119.693 143.954 123.219 142.169C126.745 140.384 130.028 137.436 130.734 133.545C132.883 121.589 141.156 111.51 148.243 101.636C148.009 101.588 148.082 101.057 147.995 100.834C147.09 98.4891 145.076 96.7234 142.81 95.6095C140.543 94.4956 138.014 94.1843 135.583 93.659Z" fill="#6C63FF"/>
<path d="M98.2691 93.7465C98.4006 92.4498 98.1451 91.1431 97.5347 89.9914C96.3625 88.0458 93.9064 87.3599 91.6983 86.9027C89.5616 86.4649 87.4151 86.0888 85.2589 85.7742C83.4886 85.5164 81.6744 85.2878 79.9333 85.6867C77.5015 86.2169 75.522 87.8269 73.2702 88.8289C70.6098 90.0158 67.6624 90.3271 64.8221 90.9837C61.9817 91.6404 59.0733 92.7543 57.2932 95.0599C55.9411 96.811 55.4013 99.0484 54.9976 101.228C51.6271 119.415 55.2554 138.069 55.946 156.552C56.2135 163.746 55.8876 171.437 51.7779 177.346L63.7472 177.03C66.8113 176.952 70.1039 176.792 72.5017 174.9C74.6222 173.236 75.6241 170.556 76.5336 168.017C77.2486 166.018 77.9684 163.98 78.0608 161.859C78.2505 157.515 75.7846 153.25 76.6017 148.974C77.1999 145.783 79.5199 143.205 82.0052 141.109C84.4905 139.012 87.253 137.217 89.2617 134.649C92.851 130.111 93.5368 123.909 93.0893 118.145C92.8218 114.716 92.209 111.287 92.5057 107.857C92.7294 105.294 93.5416 102.648 95.2196 100.649C97.1067 98.3821 98.1037 96.9617 98.2691 93.7465Z" fill="#3F3D56"/>
<path opacity="0.1" d="M97.5346 89.9914C96.382 88.0749 93.9891 87.3842 91.7956 86.927C92.9617 87.342 93.9594 88.128 94.6359 89.1645C95.2486 90.3153 95.5043 91.6227 95.3703 92.9196C95.205 96.1299 94.208 97.5503 92.3014 99.8218C90.6235 101.821 89.8112 104.462 89.5875 107.03C89.2908 110.46 89.9037 113.889 90.1712 117.318C90.6186 123.082 89.9328 129.284 86.3484 133.822C84.3348 136.371 81.5723 138.2 79.0919 140.282C76.6114 142.364 74.2818 144.956 73.6835 148.147C72.8811 152.423 75.3469 156.688 75.1426 161.032C75.0502 163.153 74.3255 165.191 73.6106 167.19C72.706 169.729 71.6992 172.405 69.5787 174.068C67.1469 175.96 63.8737 176.126 60.8242 176.203L52.3469 176.427C52.1573 176.738 51.9627 177.05 51.7536 177.346L63.7229 177.03C66.787 176.952 70.0796 176.792 72.4774 174.9C74.5979 173.236 75.5998 170.556 76.5093 168.017C77.2242 166.018 77.9441 163.98 78.0365 161.859C78.2261 157.515 75.7603 153.25 76.5774 148.974C77.1756 145.783 79.4956 143.205 81.9809 141.109C84.4662 139.012 87.2287 137.217 89.2373 134.649C92.8267 130.111 93.5124 123.909 93.065 118.145C92.7975 114.716 92.1847 111.287 92.4814 107.857C92.7051 105.294 93.5173 102.648 95.1953 100.649C97.1018 98.382 98.1134 96.9617 98.2642 93.7465C98.3972 92.4502 98.1434 91.1436 97.5346 89.9914Z" fill="black"/>
<path opacity="0.1" d="M187.463 277.441L165.494 331.019C164.247 330.125 163.204 328.976 162.435 327.648C164.2 320.97 166.014 314.179 169.608 308.279C170.781 306.334 172.123 304.558 173.329 302.661C176.826 297.165 177.546 290.228 181.539 285.082C181.92 284.563 182.126 283.936 182.126 283.292C182.126 282.648 181.92 282.021 181.539 281.502C181.077 280.904 180.342 280.335 180.479 279.595C180.581 279.056 181.145 278.569 180.926 278.063C180.824 277.82 180.576 277.689 180.381 277.514C179.7 276.886 179.788 275.816 179.73 274.897C179.579 272.567 178.183 270.519 176.811 268.617C176.538 268.166 176.175 267.776 175.746 267.469C175.386 267.25 174.958 267.153 174.598 266.929C173.324 266.132 173.417 264.273 172.804 262.897C172.006 261.083 169.997 260.158 168.679 258.685C167.001 256.812 166.573 254.2 164.789 252.561L164.638 252.181L166.35 241.845L187.463 277.441Z" fill="black"/>
</g>
<defs>
<linearGradient id="paint0_linear" x1="129.309" y1="362.33" x2="129.309" y2="70.1408" gradientUnits="userSpaceOnUse">
<stop stop-color="#808080" stop-opacity="0.25"/>
<stop offset="0.54" stop-color="#808080" stop-opacity="0.12"/>
<stop offset="1" stop-color="#808080" stop-opacity="0.1"/>
</linearGradient>
<clipPath id="clip0">
<rect width="491" height="365" fill="white"/>
</clipPath>
</defs>
</svg>
